<?xml version="1.0" encoding="UTF-8" standalone="no" ?>
<!DOCTYPE svg PUBLIC "-//W3C//DTD SVG 1.1//EN" "http://www.w3.org/Graphics/SVG/1.1/DTD/svg11.dtd">
<svg xmlns="http://www.w3.org/2000/svg" xmlns:xlink="http://www.w3.org/1999/xlink" version="1.1" width="1080" height="1080" viewBox="0 0 1080 1080" xml:space="preserve">
<desc>Created with Fabric.js 5.2.4</desc>
<defs>
</defs>
<g transform="matrix(1 0 0 1 540 540)" id="d5b09e2b-b76c-4f6e-a4f1-9b740396006d"  >
</g>
<g transform="matrix(1 0 0 1 540 540)" id="0f491e94-b832-45c8-bf1d-e1590cb82eaf"  >
<rect style="stroke: none; stroke-width: 1; stroke-dasharray: none; stroke-linecap: butt; stroke-dashoffset: 0; stroke-linejoin: miter; stroke-miterlimit: 4; fill: rgb(255,255,255); fill-rule: nonzero; opacity: 1; visibility: hidden;" vector-effect="non-scaling-stroke"  x="-540" y="-540" rx="0" ry="0" width="1080" height="1080" />
</g>
<g transform="matrix(6.01 0 0 6.01 577.73 459.02)"  >
<path style="stroke: none; stroke-width: 1; stroke-dasharray: none; stroke-linecap: butt; stroke-dashoffset: 0; stroke-linejoin: miter; stroke-miterlimit: 4; fill: rgb(0,0,0); fill-rule: nonzero; opacity: 1;" vector-effect="non-scaling-stroke"  transform=" translate(-49.98, -50)" d="M 92.80469 23.15643 C 90.87476 19.64532 88.33014 16.37643 84.74569 14.496030000000001 C 83.70769 13.95147 82.75314 13.492180000000001 81.88729 12.93988 C 81.15725353073432 13.029588155946678 80.4227763220738 13.0784509215192 79.68728999999999 13.086239999999998 C 70.98660999999998 12.98004 62.27810999999999 12.59289 53.58712999999999 12.83532 C 42.71111876258642 13.099631700199907 31.8994974717753 14.588308359865437 21.35677999999995 17.273189999999975 C 17.479399999999988 18.27459 12.848719999999986 18.29937 10.605439999999986 22.76989 C 10.400359999999985 23.1787 9.619909999999985 23.25756 9.220549999999985 23.61639 C 4.918609999999985 27.48114 2.626549999999985 31.4403 5.925319999999985 37.295649999999995 C 6.733789999999985 38.73076999999999 7.308379999999985 40.389219999999995 8.406219999999985 41.55273 C 11.783539999999984 45.13189 12.852139999999984 49.3424 12.750459999999986 54.12173 C 12.614779999999985 60.49873 12.972809999999987 66.89346 12.650549999999987 73.25686 C 12.35406 79.11218 14.33728 83.158 19.92566 84.916 C 23.421709609060386 85.9116818601655 27.015791833784494 86.52368937942079 30.644349999999992 86.74119999999999 C 36.61066 87.25097 42.57227 87.74108 48.549620000000004 86.22691999999999 C 53.113220000000005 85.07091999999999 57.8233 84.47905999999999 62.480160000000005 83.70849 C 68.31372 82.74316 74.23303 82.16332 79.97241 80.81066 C 83.38171 80.00719 87.09478999999999 78.15722 88.14202999999999 74.60009 C 89.29571309098924 70.28626108655168 89.87489270506191 65.83901246647989 89.86456000000001 61.37359000000001 C 89.97167999999999 55.879389999999994 89.38641 50.37158999999999 89.12487 45.343439999999994 C 90.72027 44.49956999999999 92.16198 44.23553 92.58887 43.43212 C 94.88893030374074 39.397968939153444 95.91515651986492 34.76251609114003 95.53278 30.13450999999999 C 94.90792992781059 27.70704958995355 93.9919218160864 25.364026491646555 92.80469 23.15643 Z M 83.25726999999999 24.45471 C 82.13385999999998 24.223019999999998 81.01038 23.99139 80.3744 23.86029 C 79.24494 21.137449999999998 78.2474 18.73267 77.26733999999999 16.37024 C 78.9646 16.45416 83.62653 22.556 83.25726 24.45471 Z M 76.96087999999999 24.299129999999998 L 72.26971 24.299129999999998 L 72.22009 23.857599999999998 C 73.59271 23.33813 74.96527 22.818599999999996 76.44592 22.25817 C 76.5899 22.82886 76.75433 23.48077 76.96088 24.29913 Z M 63.77667 36.71765 C 65.04651 38.45209 66.14767 40.21865 64.95752 42.50439 C 64.82852 41.6986 64.69965 40.89282 64.50061000000001 39.64862 C 63.51961000000001 40.38397 62.84772000000001 40.88769 61.776860000000006 41.69043 C 60.67206000000001 37.19202 59.61341000000001 32.88116 58.554860000000005 28.57098 C 59.006280000000004 28.767329999999998 59.465630000000004 28.96692 60.18621 29.280089999999998 C 60.05817075212081 28.684983103614393 60.00831007338536 28.0757159992012 60.037890000000004 27.46771 C 60.24788418980891 26.733253230829327 60.51063053079367 26.01491591697893 60.82408 25.318300000000004 C 61.584880000000005 25.901739999999997 63.07585 26.631899999999998 62.99266 27.045659999999998 C 62.22673 30.8556 65.28866000000001 31.93574 67.40282 33.74966 C 69.11282975972212 35.193710244740025 70.6500264642128 36.83075411550944 71.98374999999999 38.62814 C 68.93834 39.926300000000005 67.0222 38.33377 65.37828 36.4227 C 63.77910000000001 34.5637 62.41411 32.503209999999996 60.94628 30.53116 Q 60.396280000000004 30.91971 59.84637 31.30816 C 61.15594 33.11169 62.46 34.91925 63.77667 36.71765 Z M 58.46179 28.45111 C 55.28711 25.75011 52.11658 23.05279 49.477109999999996 20.80719 C 50.97546 21.30048 53.67883 21.579829999999998 55.52106 22.98669 C 57.0188 24.13049 57.53546 26.559 58.46179 28.45111 Z M 56.29065 19.772280000000002 L 56.72192 19.05628 C 58.07837 19.96619 59.434749999999994 20.876170000000002 61.10046 21.9936 C 58.58307 23.00464 58.58307 23.00464 56.29065 19.77228 Z M 65.3891 28.08155 C 68.28339 28.25147 70.61371 28.38825 73.60285 28.56373 C 71.017 30.75415 67.226 30.64008 65.3891 28.08154 Z M 66.87378 15.6496 C 71.89917 15.8586 71.89917 15.8586 74.62366 18.8506 C 74.6555342971206 19.01307590036831 74.64041654569344 19.181272159133066 74.58008 19.33546 C 71.96985 21.62696 71.97908 21.614330000000002 69.47229 18.71946 C 68.98167312759453 18.187246869500513 68.43855321681424 17.705950742184612 67.8512 17.282899999999998 C 67.36676 16.911900000000003 66.81885000000001 16.62378 66.29908 16.299010000000003 Q 66.58636 15.97427 66.87378 15.6496 Z M 68.3009 22.10077 C 65.38452 22.72803 62.90374 22.54669 61.7373 19.25299 C 65.66718 18.09589 66.84589 18.58722 68.3009 22.10077 Z M 45.92108 16.30426 L 62.06982 16.30426 Q 62.08548 16.80734 62.10119 17.31042 C 59.08746 17.31042 56.072810000000004 17.26654 53.06042 17.3305 C 51.72674 17.35882 50.39242 17.75433 49.06829 17.706500000000002 C 47.95759993946615 17.564918916689376 46.86376523944742 17.31310700166999 45.802969999999995 16.954789999999996 Z M 41.357850000000006 18.40894 L 34.976200000000006 17.77674 C 36.96454 16.59619 40.35669 16.81342 41.35785 18.40894 Z M 38.5495 83.81543 C 33.98737 83.59570000000001 29.427860000000003 83.245 24.8808 82.80823000000001 C 19.35321 82.27735000000001 16.99005 79.55030000000001 16.75965 73.89142000000001 C 16.47059 66.78931000000001 15.39065 59.62897000000001 16.00265 52.61163000000001 C 16.42365 47.78552000000001 14.83578 44.739860000000014 11.88082 41.62707000000001 C 10.627310641218648 40.290588673365285 9.56690682303382 38.78533825201347 8.730430000000002 37.15507000000001 C 6.30032 32.44651000000001 8.11562 28.111120000000007 13.545490000000001 25.32560000000001 C 18.629350000000002 22.717600000000008 23.82338 20.50541000000001 29.772360000000003 21.06547000000001 C 36.68014 21.31919000000001 43.57009 21.547950000000007 49.862080000000006 25.24589000000001 C 53.22968777835049 27.16786747909196 55.78028658778361 30.2525812952726 57.035360000000004 33.921310000000005 C 58.259240000000005 37.33562000000001 56.165850000000006 41.60966000000001 52.36587 43.430160000000015 C 50.756370000000004 44.20122000000001 49.995940000000004 44.93968000000002 50.04312 46.85496000000001 C 50.17569 52.23179000000001 50.1304 57.616740000000014 50.0079 62.99516000000001 C 50.04378202118805 69.33249552340372 48.161874773945236 75.53247441930947 44.609399999999994 80.78062000000003 C 43.30906981101185 82.83833062926978 40.97611394397443 84.00667957807154 38.5495 83.81543 Z M 85.84918 65.8985 C 85.27667000000001 74.77265 81.30957000000001 77.47955 72.58575 78.96076 Q 61.171870000000006 80.89876 49.74615 82.7671 C 49.11900400187655 82.81520992772573 48.48924221635687 82.81894255735368 47.86157 82.77827 C 49.02457 80.45448 50.08357 78.55879 50.94415 76.57698 C 53.45862 70.78639000000001 53.08569 64.61629 53.16986 58.5146 C 53.2027 56.13478 53.14398 53.753370000000004 53.19403 51.3741 C 53.10453492172974 50.73235570481943 53.31782378432858 50.08540341608613 53.77143237396266 49.62271090821337 C 54.22504096359673 49.16001840034062 54.867637557875966 48.93394535942971 55.51103 49.0107 C 64.88808770124068 48.48456761450109 74.19712299201643 47.09945207055114 83.32114999999995 44.872759999999985 C 84.70677 44.55825 85.82292 44.59737 85.84324000000001 46.29518 C 85.92163 52.83093 86.269 59.39069 85.84918 65.8985 Z M 89.09949 40.08045 C 88.54535 40.806039999999996 86.26612 40.73878 85.04517 40.28589 C 83.77283 39.81409 82.89869 38.354800000000004 81.72345 37.50238 C 80.94732891956377 37.072228662945754 80.11983703363167 36.74214047598831 79.26074 36.52 L 78.77092999999999 37.340920000000004 Q 79.41472999999999 38.59666000000001 80.05847 39.85239000000001 L 79.67724 40.39078000000001 L 69.24329 33.093 C 71.96003 31.412520000000004 73.75037 30.500290000000003 75.78656000000001 32.92985 C 76.98024469845954 34.1659386861506 78.51286188080316 35.021358267729184 80.19156000000001 35.38847 Q 77.48233 31.4821 74.77310000000001 27.57566 Q 75.09024000000001 27.24113 75.40732000000001 26.906589999999998 C 76.33512000000002 27.40909 77.26291000000002 27.91153 78.55094000000001 28.609099999999998 C 78.78171000000002 28.12173 79.09763000000001 27.4545 79.53922000000001 26.521819999999998 C 80.03600211415005 27.055414942787845 80.46639646741701 27.64715849138587 80.82102000000002 28.284149999999993 C 81.66312000000002 30.951449999999998 82.04246000000002 33.85867 83.36722000000002 36.247279999999996 C 84.27066000000002 37.876129999999996 86.43582000000002 38.82913 88.11264000000001 39.973279999999995 C 88.28726000000002 40.09242 88.83896000000001 39.66054 89.67941000000002 39.17688999999999 C 89.50337991324535 39.488818334124076 89.30976093788277 39.79048826306058 89.09949 40.08044 Z M 91.30249 34.41169 C 91.10531033750514 35.974626572134675 90.62083279111401 37.487630624657584 89.87349 38.8744 C 85.36458 35.64735 82.95296 31.5666 83.33608000000001 25.910230000000002 C 85.58708000000001 27.87056 85.32241 32.01252 89.76583000000001 32.54188 C 89.12027195059694 31.474528579786472 88.53545897010687 30.371598642048706 88.01418000000001 29.23835 C 87.37918 27.57081 85.87465000000002 26.10755 87.20748 23.9477 C 87.5436 23.403080000000003 86.45614 21.8627 85.84829 20.8887 C 85.26043690241036 20.083819684834708 84.60796736897888 19.328185364876994 83.89736 18.629299999999997 Q 84.09566000000001 18.3519 84.29391000000001 18.074550000000002 C 85.37591 18.92282 87.05331000000001 19.56277 87.43591 20.65585 C 89.01111 25.15631 91.93109 29.37244 91.30249 34.41168 Z" stroke-linecap="round" />
</g>
<g transform="matrix(6.01 0 0 6.01 468.95 601.88)"  >
<path style="stroke: none; stroke-width: 1; stroke-dasharray: none; stroke-linecap: butt; stroke-dashoffset: 0; stroke-linejoin: miter; stroke-miterlimit: 4; fill: rgb(0,0,0); fill-rule: nonzero; opacity: 1;" vector-effect="non-scaling-stroke"  transform=" translate(-31.87, -73.74)" d="M 29.331 71.185 C 31.10824 72.13111 32.94889 72.98132 34.621 74.08648000000001 C 35.07531 74.38675 35.021300000000004 75.45606000000001 35.2006 76.17241000000001 C 34.36433977290838 76.32426998112574 33.508187391395275 76.3311334073687 32.6696 76.19270000000002 C 31.571541770288178 75.82277381251613 30.570558210030534 75.21101360352303 29.740510000000004 74.40256000000002 C 29.196054099556772 73.59879827376156 28.79131440284437 72.70882263148305 28.543380000000003 71.77021000000002 Z" stroke-linecap="round" />
</g>
<g transform="matrix(6.01 0 0 6.01 455.61 470.14)"  >
<path style="stroke: none; stroke-width: 1; stroke-dasharray: none; stroke-linecap: butt; stroke-dashoffset: 0; stroke-linejoin: miter; stroke-miterlimit: 4; fill: rgb(0,0,0); fill-rule: nonzero; opacity: 1;" vector-effect="non-scaling-stroke"  transform=" translate(-29.65, -51.83)" d="M 29.4228 49.90734 C 30.3201 51.03988 30.936719999999998 51.8181 31.55334 52.59634 C 30.937759999999997 53.009499999999996 30.14042 53.891189999999995 29.74476 53.73764 C 28.902164772546723 53.33655216330251 28.208049942183727 52.67919076571214 27.76176 51.85964 C 27.64352 51.65828 28.64236 50.80078 29.4228 49.90734 Z" stroke-linecap="round" />
</g>
<g transform="matrix(6.01 0 0 6.01 361.6 355.11)"  >
<path style="stroke: none; stroke-width: 1; stroke-dasharray: none; stroke-linecap: butt; stroke-dashoffset: 0; stroke-linejoin: miter; stroke-miterlimit: 4; fill: rgb(0,0,0); fill-rule: nonzero; opacity: 1;" vector-effect="non-scaling-stroke"  transform=" translate(-14.02, -32.7)" d="M 13.54442 30.766 C 14.528690000000001 31.907639999999997 15.17094 32.65254 15.81319 33.397439999999996 C 15.25019 33.83595999999999 14.41707 34.759229999999995 14.17381 34.623689999999996 C 13.371102279390577 34.134792514093 12.704598680381581 33.45142254607869 12.23591 32.63675 C 12.112 32.43123 12.87913 31.68824 13.54442 30.766 Z" stroke-linecap="round" />
</g>
<g transform="matrix(6.01 0 0 6.01 433.96 341.62)"  >
<path style="stroke: none; stroke-width: 1; stroke-dasharray: none; stroke-linecap: butt; stroke-dashoffset: 0; stroke-linejoin: miter; stroke-miterlimit: 4; fill: rgb(0,0,0); fill-rule: nonzero; opacity: 1;" vector-effect="non-scaling-stroke"  transform=" translate(-26.05, -30.46)" d="M 23.91951 30.3162 C 25.123759999999997 29.532329999999998 25.834799999999998 28.761899999999997 26.191509999999997 28.9009 C 26.940648598333528 29.333982321077514 27.61308146570815 29.887868625404302 28.181639999999994 30.540179999999996 C 27.65927 31.07249 27.091639999999998 32.07449 26.62492 32.02948 C 25.88351 31.958 25.20938 31.18771 23.91951 30.3162 Z" stroke-linecap="round" />
</g>
<g transform="matrix(6.01 0 0 6.01 488.24 546.27)"  >
<path style="stroke: none; stroke-width: 1; stroke-dasharray: none; stroke-linecap: butt; stroke-dashoffset: 0; stroke-linejoin: miter; stroke-miterlimit: 4; fill: rgb(0,0,0); fill-rule: nonzero; opacity: 1;" vector-effect="non-scaling-stroke"  transform=" translate(-35.08, -64.49)" d="M 37.44354 64.05521 C 35.71823 64.84741 34.50154 65.40612 33.2848 65.96479000000001 C 33.089029999999994 65.43987000000001 32.571569999999994 64.72026000000001 32.751619999999996 64.42279 C 33.67163 62.90272 34.9606 62.37065 37.44354 64.05521 Z" stroke-linecap="round" />
</g>
<g transform="matrix(6.01 0 0 6.01 506.15 365.88)"  >
<path style="stroke: none; stroke-width: 1; stroke-dasharray: none; stroke-linecap: butt; stroke-dashoffset: 0; stroke-linejoin: miter; stroke-miterlimit: 4; fill: rgb(0,0,0); fill-rule: nonzero; opacity: 1;" vector-effect="non-scaling-stroke"  transform=" translate(-38.06, -34.49)" d="M 37.97967 32.69669 C 38.76323 33.633689999999994 39.26434 34.23292 39.765409999999996 34.83217 C 39.11134 35.35867 38.476879999999994 36.251059999999995 37.796609999999994 36.287479999999995 C 37.31560999999999 36.31321 36.53041999999999 35.24003 36.35612 34.53925999999999 C 36.26458 34.171 37.19356 33.54892 37.97967 32.69669 Z" stroke-linecap="round" />
</g>
<g transform="matrix(6.01 0 0 6.01 492.86 499.49)"  >
<path style="stroke: none; stroke-width: 1; stroke-dasharray: none; stroke-linecap: butt; stroke-dashoffset: 0; stroke-linejoin: miter; stroke-miterlimit: 4; fill: rgb(0,0,0); fill-rule: nonzero; opacity: 1;" vector-effect="non-scaling-stroke"  transform=" translate(-35.85, -56.71)" d="M 36.7069 54.73134 C 37.14081195688166 55.4953699901082 37.41690796595168 56.33874277808574 37.51882 57.21146 C 37.26120718902469 57.897749874148005 36.718076540211825 58.438220139279025 36.03053 58.692460000000004 C 35.26876556068522 58.230164617000305 34.632027829796385 57.58807037802159 34.17613 56.82246000000001 C 34.525809234162395 56.343542805139485 34.93294622496923 55.90935357837274 35.38841 55.529630000000004 Z" stroke-linecap="round" />
</g>
<g transform="matrix(6.01 0 0 6.01 528.8 396.86)"  >
<path style="stroke: none; stroke-width: 1; stroke-dasharray: none; stroke-linecap: butt; stroke-dashoffset: 0; stroke-linejoin: miter; stroke-miterlimit: 4; fill: rgb(0,0,0); fill-rule: nonzero; opacity: 1;" vector-effect="non-scaling-stroke"  transform=" translate(-41.82, -39.64)" d="M 43.83036 39.63061 C 42.6079 40.3735 41.92044 41.10174 41.22481 41.109609999999996 C 40.52543471454704 40.90171326754443 39.98929703103253 40.33771260299228 39.81707 39.62871 C 39.986221572415964 38.93135080938834 40.51549736936154 38.37775676001911 41.20456 38.17747 C 41.90882 38.19152 42.59924 38.901 43.83036 39.63061 Z" stroke-linecap="round" />
</g>
<g transform="matrix(6.01 0 0 6.01 428.49 407.79)"  >
<path style="stroke: none; stroke-width: 1; stroke-dasharray: none; stroke-linecap: butt; stroke-dashoffset: 0; stroke-linejoin: miter; stroke-miterlimit: 4; fill: rgb(0,0,0); fill-rule: nonzero; opacity: 1;" vector-effect="non-scaling-stroke"  transform=" translate(-25.14, -41.46)" d="M 26.01 39.55792 C 26.287860000000002 40.298350000000006 26.906360000000003 41.12263 26.750500000000002 41.75632 C 26.585230000000003 42.427690000000005 25.683830000000004 42.91798 25.104000000000003 43.487370000000006 C 24.47258290586419 42.93897695508954 23.946856348070238 42.27965986268648 23.5528 41.542 C 23.36647 40.94869 23.841140000000003 40.14786 24.0225 39.43914 Q 25.01621 39.49854 26.01 39.55792 Z" stroke-linecap="round" />
</g>
</svg>