<?xml version="1.0" encoding="UTF-8" standalone="no" ?>
<!DOCTYPE svg PUBLIC "-//W3C//DTD SVG 1.1//EN" "http://www.w3.org/Graphics/SVG/1.1/DTD/svg11.dtd">
<svg xmlns="http://www.w3.org/2000/svg" xmlns:xlink="http://www.w3.org/1999/xlink" version="1.1" width="1080" height="1080" viewBox="0 0 1080 1080" xml:space="preserve">
<desc>Created with Fabric.js 5.2.4</desc>
<defs>
</defs>
<g transform="matrix(1 0 0 1 540 540)" id="b48352ee-3ea7-4312-8d63-dfb30308ae91"  >
<rect style="stroke: none; stroke-width: 1; stroke-dasharray: none; stroke-linecap: butt; stroke-dashoffset: 0; stroke-linejoin: miter; stroke-miterlimit: 4; fill: rgb(255,255,255); fill-rule: nonzero; opacity: 1; visibility: hidden;" vector-effect="non-scaling-stroke"  x="-540" y="-540" rx="0" ry="0" width="1080" height="1080" />
</g>
<g transform="matrix(Infinity NaN NaN Infinity 0 0)" id="fc8dca6d-9577-45c2-9a23-ba278db57007"  >
</g>
<g transform="matrix(1 0 0 1 603.62 540)" id="6443c2c2-9a96-4c82-a158-a9332480021b"  >
<path style="stroke: rgb(0,0,0); stroke-width: 0; stroke-dasharray: none; stroke-linecap: butt; stroke-dashoffset: 0; stroke-linejoin: miter; stroke-miterlimit: 4; fill: rgb(0,0,0); fill-rule: nonzero; opacity: 1;" vector-effect="non-scaling-stroke"  transform=" translate(-5096.58, -4889.75)" d="M 5213.28125 4617.726562 C 5227.054688 4617.085938 5240.851562 4617.183594 5254.613281 4618.015625 C 5273.589844 4619.425781 5289.390625 4633.113281 5293.492188 4651.695312 C 5296.714844 4670.144531 5289.777344 4688.902344 5275.328125 4700.816406 C 5246.675781 4724.976562 5215.425781 4735.734375 5177.074219 4726.734375 C 5143.738281 4718.914062 5139.585938 4723.3125 5127.425781 4759.71875 C 5132.28125 4758.597656 5137.203125 4757.804688 5142.164062 4757.34375 C 5153.949219 4756.09375 5165.839844 4756.246094 5177.585938 4757.796875 C 5195.078125 4760.808594 5208.792969 4774.484375 5211.855469 4791.964844 C 5215.5 4808.847656 5206.976562 4826.003906 5191.316406 4833.292969 C 5165.714844 4844.960938 5139.152344 4857.722656 5111.796875 4861.632812 C 5067.648438 4867.945312 5059.003906 4899.539062 5048.230469 4935.171875 C 5052.917969 4934.453125 5057.550781 4933.425781 5062.101562 4932.101562 C 5081.515625 4924.765625 5095.617188 4933.621094 5106.769531 4947.882812 C 5117.539062 4961.660156 5114.828125 4976.429688 5105.554688 4990.164062 C 5087.5625 5016.8125 5065.792969 5036.574219 5030.96875 5038.992188 C 5006.382812 5040.699219 4991.839844 5067.433594 4996.113281 5099.121094 C 5011.140625 5094.078125 5025.996094 5089.332031 5040.679688 5084.089844 C 5055.222656 5078.898438 5069.21875 5079.457031 5078.109375 5092.839844 C 5088.457031 5105.257812 5089.792969 5122.871094 5081.441406 5136.707031 C 5062.996094 5169.476562 5032.398438 5181.390625 4999.652344 5189.40625 C 4979.789062 5194.269531 4970.207031 5203.300781 4970.632812 5224.023438 C 4971.246094 5253.941406 4971.058594 5283.890625 4970.226562 5313.796875 C 4969.914062 5319.695312 4966.882812 5325.113281 4962.019531 5328.46875 C 4956.242188 5329.882812 4950.144531 5328.324219 4945.753906 5324.3125 C 4941.59375 5318.820312 4939.457031 5312.0625 4939.703125 5305.175781 C 4940.753906 5278.777344 4942.34375 5252.355469 4945.179688 5226.097656 C 4946.707031 5211.9375 4944.398438 5205.148438 4928.097656 5204.605469 C 4893.53125 5205.195312 4862.273438 5184.140625 4849.828125 5151.886719 C 4840.902344 5130.617188 4836.238281 5107.601562 4828.367188 5085.835938 C 4822.941406 5070.820312 4830.023438 5063.21875 4841.597656 5056.839844 C 4870.472656 5042.5 4905.488281 5051.179688 4924.316406 5077.351562 C 4935.539062 5094.042969 4945.898438 5111.296875 4955.359375 5129.042969 C 4968.050781 5104.851562 4975.757812 5078.359375 4978.027344 5051.136719 C 4978.300781 5048.414062 4972.011719 5043.761719 4967.914062 5042.054688 C 4907.394531 5016.816406 4896.125 4966.621094 4898.648438 4914.175781 C 4898.566406 4906.121094 4902.246094 4898.492188 4908.601562 4893.546875 C 4914.957031 4888.601562 4923.257812 4886.902344 4931.042969 4888.960938 C 4962.90625 4894.070312 4987.855469 4909.050781 4999.800781 4941.027344 C 5002.789062 4947.617188 5006.144531 4954.03125 5009.855469 4960.242188 C 5013.25 4955.726562 5016.253906 4950.929688 5018.835938 4945.90625 C 5022.683594 4935.890625 5023.433594 4923.808594 5029.585938 4915.710938 C 5054.6875 4882.679688 5034.820312 4860.871094 5012.140625 4840.003906 C 4981.332031 4811.65625 4974.585938 4777.160156 4983.804688 4738.046875 C 4986.945312 4725.800781 4994.910156 4715.347656 5005.882812 4709.066406 C 5016.855469 4702.785156 5029.902344 4701.210938 5042.054688 4704.707031 C 5067.519531 4712.539062 5083.398438 4730.261719 5096.25 4757.6875 C 5104.671875 4741.0625 5113.554688 4724.640625 5121.011719 4707.59375 C 5122.105469 4705.097656 5116.777344 4699.34375 5113.800781 4695.585938 C 5095.992188 4675.671875 5085.617188 4650.210938 5084.433594 4623.519531 C 5084.292969 4596.832031 5101.460938 4567.980469 5120.925781 4561.976562 C 5148.097656 4553.59375 5168.707031 4562.71875 5190.910156 4594.574219 C 5202.984375 4576.144531 5221.347656 4563.4375 5222.179688 4538.796875 C 5223.421875 4501.84375 5244.09375 4476.4375 5274.742188 4458.613281 C 5298.039062 4445.066406 5321.496094 4449.894531 5342.902344 4463.132812 C 5361.25 4474.722656 5370.242188 4496.660156 5365.304688 4517.792969 C 5362.847656 4530.550781 5356.117188 4542.085938 5346.222656 4550.503906 C 5328.5 4563.730469 5309.507812 4575.167969 5289.523438 4584.640625 C 5281.304688 4587.882812 5272.371094 4588.875 5263.640625 4587.515625 C 5228.960938 4584.203125 5226.773438 4585.222656 5213.28125 4617.726562 Z M 5055.957031 4849.339844 C 5061.28125 4832.984375 5067.140625 4818.25 5070.78125 4802.988281 C 5076.582031 4783.148438 5072.945312 4761.746094 5060.917969 4744.941406 C 5052.363281 4734.679688 5040.046875 4728.277344 5026.734375 4727.171875 C 5018.777344 4727.101562 5006.242188 4740.757812 5003.449219 4750.480469 C 4992.867188 4787.320312 5017.464844 4832.753906 5055.957031 4849.339844 Z M 4938.417969 5159.085938 C 4932.800781 5130.179688 4918.871094 5103.539062 4898.34375 5082.425781 C 4893.441406 5077.453125 4887.148438 5074.085938 4880.289062 5072.761719 C 4871.890625 5071.230469 4863.214844 5072.660156 4855.75 5076.804688 C 4851.699219 5079.917969 4853.195312 5090.992188 4853.300781 5098.496094 C 4853.71875 5103.542969 4854.808594 5108.511719 4856.550781 5113.265625 C 4865.125 5142.183594 4879.828125 5166.511719 4908.28125 5179.902344 C 4925.773438 5188.136719 4938.8125 5181.105469 4938.417969 5159.085938 Z M 5309.71875 4475.269531 C 5277.925781 4475.195312 5248.578125 4505.210938 5246.121094 4536.367188 C 5244.167969 4561.148438 5262.554688 4574.246094 5284.890625 4562.84375 C 5299.957031 4555.15625 5313.671875 4544.855469 5328.257812 4536.171875 C 5341.480469 4529.828125 5347.359375 4514.195312 5341.59375 4500.710938 C 5338.109375 4485.894531 5324.941406 4475.382812 5309.71875 4475.269531 Z M 4973.53125 5023.765625 L 4980.503906 5019.105469 C 4982.957031 5003.765625 4984.363281 4988.277344 4984.71875 4972.746094 C 4983.363281 4937.808594 4965.308594 4915.664062 4938.703125 4912.210938 C 4928.539062 4910.890625 4923.15625 4913.90625 4921.8125 4924.4375 C 4916.957031 4951.492188 4924.222656 4979.3125 4941.679688 5000.539062 C 4951.34375 5009.511719 4962.035156 5017.308594 4973.53125 5023.765625 Z M 5157.417969 4698.027344 C 5181.753906 4707.410156 5204.3125 4714.597656 5226.777344 4704.246094 C 5240.566406 4697.707031 5252.761719 4688.238281 5262.519531 4676.503906 C 5267.03125 4668.1875 5266.925781 4658.128906 5262.238281 4649.90625 C 5255.011719 4642.734375 5244.933594 4639.203125 5234.8125 4640.296875 C 5201.101562 4646.871094 5179.316406 4670.84375 5157.417969 4698.027344 Z M 5135.511719 4683.238281 C 5149.914062 4659.410156 5172.40625 4639.558594 5165.847656 4608.265625 C 5163.863281 4598.8125 5155.101562 4585.4375 5147.4375 4583.90625 C 5136.066406 4583.210938 5124.96875 4587.550781 5117.089844 4595.773438 C 5099.046875 4615.65625 5103.097656 4655.601562 5135.511719 4683.238281 Z M 5090.75 4845.734375 C 5117.769531 4837.621094 5143.722656 4830.292969 5169.28125 4821.78125 C 5175.03125 4819.222656 5179.855469 4814.964844 5183.109375 4809.578125 C 5186.914062 4805.109375 5188.246094 4799.035156 5186.65625 4793.382812 C 5185.070312 4787.734375 5180.769531 4783.242188 5175.191406 4781.410156 C 5140.730469 4764.035156 5088.003906 4800.84375 5090.75 4845.734375 Z M 4980.492188 5171.09375 C 5010.785156 5165.628906 5038.921875 5158.777344 5056.882812 5132.882812 C 5060.296875 5126.601562 5060.683594 5119.109375 5057.941406 5112.503906 C 5056.230469 5109.050781 5045.558594 5107.289062 5040.167969 5108.929688 C 5026.46875 5113.523438 5013.074219 5118.984375 5000.066406 5125.277344 C 4980.96875 5133.871094 4975.566406 5149.023438 4980.492188 5171.09375 Z M 5087.320312 4971.09375 C 5088.15625 4966.339844 5086.566406 4961.480469 5083.085938 4958.136719 C 5079.601562 4954.792969 5074.683594 4953.402344 5069.96875 4954.433594 C 5050.414062 4956.929688 5022.171875 4985.925781 5022.269531 5004.800781 C 5023.230469 5009.703125 5026.617188 5013.777344 5031.261719 5015.617188 C 5052.28125 5019.570312 5086.160156 4992.050781 5087.320312 4971.09375 Z M 5087.320312 4971.09375" stroke-linecap="round" />
</g>
</svg>