<?xml version="1.0" encoding="UTF-8" standalone="no" ?>
<!DOCTYPE svg PUBLIC "-//W3C//DTD SVG 1.1//EN" "http://www.w3.org/Graphics/SVG/1.1/DTD/svg11.dtd">
<svg xmlns="http://www.w3.org/2000/svg" xmlns:xlink="http://www.w3.org/1999/xlink" version="1.1" width="1080" height="1080" viewBox="0 0 1080 1080" xml:space="preserve">
<desc>Created with Fabric.js 5.2.4</desc>
<defs>
</defs>
<rect x="0" y="0" width="100%" height="100%" fill="transparent"></rect>
<g transform="matrix(1 0 0 1 540 540)" id="b48352ee-3ea7-4312-8d63-dfb30308ae91"  >
<rect style="stroke: none; stroke-width: 1; stroke-dasharray: none; stroke-linecap: butt; stroke-dashoffset: 0; stroke-linejoin: miter; stroke-miterlimit: 4; fill: rgb(255,255,255); fill-rule: nonzero; opacity: 1; visibility: hidden;" vector-effect="non-scaling-stroke"  x="-540" y="-540" rx="0" ry="0" width="1080" height="1080" />
</g>
<g transform="matrix(Infinity NaN NaN Infinity 0 0)" id="fc8dca6d-9577-45c2-9a23-ba278db57007"  >
</g>
<g transform="matrix(1 0 0 1 594.74 491.18)" id="fb5b4dd3-1427-4195-aa05-43138aab9feb"  >
<path style="stroke: rgb(0,0,0); stroke-width: 0; stroke-dasharray: none; stroke-linecap: butt; stroke-dashoffset: 0; stroke-linejoin: miter; stroke-miterlimit: 4; fill: rgb(0,0,0); fill-rule: nonzero; opacity: 1;" vector-effect="non-scaling-stroke"  transform=" translate(-5100.54, -4893.97)" d="M 4901.375 4977.046875 C 4891.625 4955.898438 4881.546875 4936.101562 4873.292969 4915.570312 C 4864.164062 4892.871094 4871.382812 4877.066406 4894.113281 4863.507812 C 4884.273438 4833.105469 4872.828125 4803.382812 4865.578125 4772.675781 C 4862.46875 4759.511719 4868.507812 4744.320312 4869.582031 4729.988281 C 4870.605469 4721.941406 4870.253906 4713.777344 4868.53125 4705.847656 C 4859.527344 4673.917969 4849.304688 4642.332031 4840.097656 4610.453125 C 4838.015625 4605.191406 4838.160156 4599.308594 4840.492188 4594.15625 C 4864.898438 4570.542969 4842.367188 4546.257812 4842.828125 4522.457031 C 4842.132812 4502.242188 4844.046875 4482.023438 4848.527344 4462.296875 C 4850.179688 4454.882812 4855.800781 4448.992188 4863.125 4446.984375 C 4870.453125 4444.980469 4878.289062 4447.1875 4883.492188 4452.722656 C 4898.941406 4468.082031 4912.335938 4485.382812 4923.34375 4504.1875 C 4928.609375 4514.957031 4931.707031 4526.65625 4932.460938 4538.621094 C 4936.300781 4564.890625 4935.613281 4591.777344 4969.539062 4602.527344 C 4977.75 4605.132812 4982.890625 4624.925781 4985.035156 4637.566406 C 4989.109375 4661.550781 4989.433594 4686.148438 4992.519531 4710.339844 C 4993.257812 4718.953125 4996.40625 4727.1875 5001.605469 4734.09375 C 5019.980469 4754.859375 5018.351562 4780.519531 5012.746094 4802.398438 C 5006.589844 4826.453125 5012.425781 4841.140625 5026.976562 4852.5 C 5039.835938 4844.226562 5051.660156 4836.617188 5064.820312 4828.152344 C 5071.976562 4799.183594 5078.71875 4766.445312 5088.773438 4734.765625 C 5091.554688 4726.007812 5104.46875 4720.660156 5112.207031 4713.207031 C 5116.753906 4709.167969 5120.515625 4704.316406 5123.289062 4698.902344 C 5132.652344 4678.113281 5135.53125 4648.28125 5151.375 4637.863281 C 5180.121094 4618.960938 5192.523438 4593.496094 5204.054688 4564.859375 C 5206.183594 4560.554688 5208.640625 4556.417969 5211.402344 4552.484375 C 5236.203125 4510.929688 5244.875 4509.683594 5279.15625 4544.089844 C 5285.589844 4539.9375 5291.683594 4535.289062 5297.386719 4530.1875 C 5312.136719 4514.984375 5330.582031 4511.074219 5347.238281 4521.4375 C 5364.339844 4532.078125 5364.042969 4552.015625 5356.40625 4568.890625 C 5348.257812 4586.894531 5345.664062 4601.1875 5360.199219 4618.289062 C 5365.316406 4624.3125 5360.503906 4640.597656 5357.269531 4651.300781 C 5354.0625 4659.550781 5349 4666.949219 5342.472656 4672.925781 C 5326.925781 4690.191406 5316.363281 4711.359375 5311.917969 4734.164062 C 5304.628906 4761.390625 5280.816406 4784.578125 5262.664062 4808.355469 C 5252.554688 4820.605469 5246.425781 4835.640625 5245.082031 4851.460938 C 5242.3125 4876.515625 5224.113281 4900.402344 5210.308594 4923.457031 C 5203.996094 4934 5198.3125 4940.402344 5203.113281 4955.003906 C 5206.871094 4966.429688 5200.761719 4982.507812 5195.558594 4995.078125 C 5189.273438 5007.128906 5181.855469 5018.554688 5173.40625 5029.199219 C 5164.039062 5040.988281 5159.367188 5055.824219 5160.289062 5070.851562 C 5161.355469 5091.5 5143.726562 5114.441406 5130.84375 5134.164062 C 5111.234375 5164.183594 5088.207031 5191.949219 5067.792969 5221.472656 C 5063.480469 5229.019531 5061.425781 5237.644531 5061.882812 5246.324219 C 5062.070312 5270.332031 5064.910156 5294.355469 5064.21875 5318.300781 C 5063.992188 5326.207031 5056.183594 5333.894531 5051.84375 5341.679688 C 5045.683594 5335.480469 5036.019531 5330.273438 5033.9375 5322.917969 C 5020.800781 5276.515625 5017.789062 5228.390625 5011.453125 5180.796875 C 5009.425781 5168.894531 5003.097656 5158.152344 4993.671875 5150.613281 C 4947.15625 5116.867188 4904.511719 5080.984375 4884.550781 5023.953125 C 4877.011719 5002.40625 4876.703125 4987.019531 4901.375 4977.046875 Z M 5159.453125 4857.152344 C 5261.378906 4784.765625 5287.449219 4757.683594 5287.179688 4726.613281 C 5217.511719 4742.542969 5171.414062 4783.179688 5159.453125 4857.152344 Z M 4890.542969 4755.460938 C 4898.425781 4813.507812 4918.835938 4864.484375 4963.796875 4905.933594 C 4960.363281 4844.386719 4945.757812 4790.644531 4890.542969 4755.460938 Z M 4977.550781 5026.558594 C 4984.902344 4991.25 4977.597656 4965.21875 4949.359375 4944.851562 C 4937.910156 4936.59375 4932.371094 4920.378906 4923.398438 4908.34375 C 4918.246094 4902.265625 4912.6875 4896.550781 4906.753906 4891.238281 L 4900.605469 4895.828125 C 4903.621094 4951.417969 4938.351562 4989.25 4977.550781 5026.558594 Z M 5118.589844 4746.035156 C 5088.453125 4777.136719 5085.65625 4882 5104.914062 4910.386719 C 5133.003906 4856.914062 5114.140625 4800.703125 5118.589844 4746.035156 Z M 5142.699219 4882.558594 C 5133.035156 4911.828125 5124.277344 4938.363281 5114.652344 4967.523438 C 5166.144531 4942.515625 5207.625 4897.871094 5210.378906 4867.464844 C 5186.550781 4865.328125 5178.523438 4920.675781 5142.699219 4882.558594 Z M 5055.261719 5050.683594 C 5058.9375 5051.246094 5062.609375 5051.804688 5066.285156 5052.363281 C 5069.375 5034.195312 5075.609375 5015.90625 5074.902344 4997.886719 C 5073.375 4958.9375 5068.351562 4920.128906 5064.519531 4881.285156 C 5063.25 4877.597656 5061.476562 4874.101562 5059.246094 4870.902344 C 5033.570312 4933.117188 5059.570312 4991.949219 5055.261719 5050.683594 Z M 5081.175781 5079.453125 L 5087.472656 5084.546875 C 5123.171875 5050.273438 5162.316406 5018.6875 5180.429688 4962.878906 C 5155.382812 4980.390625 5135.21875 4994.488281 5113.21875 5009.871094 C 5103.488281 5031 5092.332031 5055.226562 5081.175781 5079.453125 Z M 4914.28125 4569.296875 C 4898.984375 4497.046875 4896.738281 4492.023438 4875.121094 4480.234375 C 4862.578125 4512.773438 4873.117188 4570.699219 4896.582031 4591.527344 L 4895.464844 4568.382812 C 4902.140625 4568.707031 4907.285156 4568.957031 4914.28125 4569.296875 Z M 4927.945312 4733.800781 C 4928.890625 4685.082031 4903.152344 4650.304688 4869.9375 4619.546875 C 4865.949219 4658.152344 4898.652344 4721.425781 4927.945312 4733.800781 Z M 5247.113281 4552.257812 C 5215.523438 4586.414062 5198.300781 4657.578125 5215.765625 4677.695312 C 5239.898438 4645.125 5259.398438 4570.476562 5247.113281 4552.257812 Z M 5169.644531 4657.507812 C 5133.296875 4698.859375 5150.054688 4744.355469 5156.394531 4789.164062 C 5164.800781 4774.953125 5176.339844 4760.21875 5176.929688 4745.054688 C 5178.011719 4717.164062 5172.652344 4689.015625 5169.644531 4657.507812 Z M 5233.730469 4708.460938 C 5256.457031 4700.175781 5278.335938 4695.84375 5295.96875 4684.757812 C 5314.054688 4673.386719 5331.195312 4657.488281 5332.46875 4632.132812 C 5314.339844 4632.546875 5241.355469 4688.152344 5233.730469 4708.460938 Z M 4977.058594 5104.160156 C 4979.96875 5103.109375 4982.882812 5102.054688 4985.792969 5101 C 4984.5 5093.015625 4981.851562 5085.308594 4977.96875 5078.210938 C 4961.566406 5058.019531 4943.765625 5038.960938 4926.351562 5019.601562 C 4922.542969 5015.371094 4918.128906 5011.683594 4913.992188 5007.746094 C 4916.316406 5053.375 4942.109375 5081.953125 4977.058594 5104.160156 Z M 5035.40625 5176.054688 C 5064.441406 5127.660156 5034.230469 5085.84375 5028.40625 5041.886719 C 5010.230469 5087.441406 5027.367188 5130.460938 5035.40625 5176.054688 Z M 4958.113281 4737.332031 C 4972.085938 4697.007812 4973.105469 4660.492188 4953.261719 4624.808594 C 4944.484375 4661.796875 4935.28125 4698.773438 4958.113281 4737.332031 Z M 5277.992188 4615.953125 C 5309.679688 4607.949219 5331.394531 4578.796875 5329.988281 4546.144531 C 5301.996094 4553.53125 5281.898438 4580.515625 5277.992188 4615.953125 Z M 5067.191406 5172.765625 L 5072.222656 5175.261719 C 5089.046875 5150.402344 5105.867188 5125.542969 5122.6875 5100.679688 C 5108.191406 5110.03125 5096.261719 5121.308594 5080.246094 5103.527344 C 5075.582031 5128.261719 5071.386719 5150.511719 5067.191406 5172.765625 Z M 5026.761719 5005.992188 L 5022.144531 4910.359375 C 5022.398438 4940.296875 4994.4375 4971.222656 5026.761719 5005.992188 Z M 4969.78125 4827.621094 L 4981.597656 4829.222656 C 4984.136719 4811.464844 4986.675781 4793.703125 4989.214844 4775.945312 L 4980.40625 4774.410156 Z M 4969.78125 4827.621094" stroke-linecap="round" />
</g>
</svg>