<?xml version="1.0" encoding="UTF-8" standalone="no" ?>
<!DOCTYPE svg PUBLIC "-//W3C//DTD SVG 1.1//EN" "http://www.w3.org/Graphics/SVG/1.1/DTD/svg11.dtd">
<svg xmlns="http://www.w3.org/2000/svg" xmlns:xlink="http://www.w3.org/1999/xlink" version="1.1" width="1080" height="1080" viewBox="0 0 1080 1080" xml:space="preserve">
<desc>Created with Fabric.js 5.2.4</desc>
<defs>
</defs>
<rect x="0" y="0" width="100%" height="100%" fill="transparent"></rect>
<g transform="matrix(Infinity NaN NaN Infinity 0 0)" id="fc8dca6d-9577-45c2-9a23-ba278db57007"  >
</g>
<g transform="matrix(1 0 0 1 540 540)" id="b48352ee-3ea7-4312-8d63-dfb30308ae91"  >
<rect style="stroke: none; stroke-width: 1; stroke-dasharray: none; stroke-linecap: butt; stroke-dashoffset: 0; stroke-linejoin: miter; stroke-miterlimit: 4; fill: rgb(255,255,255); fill-rule: nonzero; opacity: 1; visibility: hidden;" vector-effect="non-scaling-stroke"  x="-540" y="-540" rx="0" ry="0" width="1080" height="1080" />
</g>
<g transform="matrix(1 0 0 1 555.13 540)"  >
<g style="" vector-effect="non-scaling-stroke"   >
		<g transform="matrix(1 0 0 1 0 0)"  >
<path style="stroke: none; stroke-width: 1; stroke-dasharray: none; stroke-linecap: butt; stroke-dashoffset: 0; stroke-linejoin: miter; stroke-miterlimit: 4; fill: rgb(0,0,0); fill-rule: nonzero; opacity: 1;" vector-effect="non-scaling-stroke"  transform=" translate(-5093.43, -4878.7)" d="M 5185.5625 4560.210938 C 5202.648438 4536.382812 5218.703125 4512.609375 5236.5 4490.214844 C 5240.480469 4485.210938 5250.566406 4485.054688 5257.839844 4482.667969 C 5258.859375 4490.117188 5262.644531 4498.574219 5260.367188 4504.824219 C 5254.175781 4521.820312 5245.421875 4537.878906 5240.640625 4548.023438 C 5270.640625 4522.34375 5304.414062 4492.207031 5339.875 4464.207031 C 5346.25 4459.171875 5359.578125 4462.9375 5369.691406 4462.644531 C 5368.53125 4472.839844 5371.0625 4486.152344 5365.550781 4492.679688 C 5344.042969 4518.175781 5320.398438 4541.9375 5296.789062 4565.585938 C 5251.476562 4610.96875 5200.960938 4652.199219 5179.628906 4716.136719 C 5178.019531 4720.035156 5177.9375 4724.398438 5179.402344 4728.351562 C 5199.636719 4760.792969 5185.433594 4792.230469 5175.28125 4822.546875 C 5155.960938 4880.257812 5119.261719 4928.84375 5088.738281 4980.753906 C 5065.742188 5019.859375 5034.484375 5052.234375 5009.050781 5089.0625 C 4959.542969 5160.746094 4894.15625 5218.878906 4841.691406 5287.988281 C 4837.585938 5293.398438 4826.296875 5293.351562 4818.347656 5295.84375 C 4816.796875 5288.453125 4816.773438 5280.824219 4818.273438 5273.421875 C 4842.320312 5222.597656 4867.855469 5172.476562 4892.058594 5121.722656 C 4915.46875 5072.632812 4938.539062 5023.359375 4960.449219 4973.589844 C 4981.832031 4925.019531 4999.070312 4874.472656 5022.839844 4827.160156 C 5040.152344 4792.710938 5042.976562 4750.425781 5075.785156 4724.164062 C 5084.730469 4715.636719 5095.132812 4708.78125 5106.496094 4703.921875 C 5118.875 4701.488281 5128.027344 4690.976562 5128.738281 4678.382812 C 5136.976562 4626.171875 5146.308594 4574.128906 5155.726562 4522.113281 C 5157.5 4511.824219 5160.667969 4501.824219 5165.144531 4492.390625 C 5168.980469 4487.898438 5173.722656 4484.269531 5179.066406 4481.75 C 5182.515625 4486.746094 5188.867188 4491.730469 5188.886719 4496.738281 C 5188.953125 4514.375 5186.796875 4532.019531 5185.601562 4549.664062 C 5185.34375 4553.515625 5185.5625 4557.402344 5185.5625 4560.210938 Z M 5077.59375 4766.835938 L 5077.859375 4766.570312 C 5066.867188 4787.042969 5055.875 4807.515625 5045.257812 4827.292969 C 5054.84375 4834.160156 5061.355469 4838.828125 5067.867188 4843.492188 L 5066.976562 4849.988281 C 5057.113281 4851.597656 5047.253906 4853.210938 5034.109375 4855.359375 C 5026.1875 4874.398438 5016.839844 4896.632812 5007.683594 4918.945312 C 5000.945312 4935.359375 4989.222656 4951.589844 5006.980469 4968.917969 C 5003.976562 4972.164062 5000.242188 4974.644531 4996.082031 4976.148438 C 4982.363281 4973.457031 4978.675781 4982.367188 4974.261719 4992.171875 C 4959.476562 5025.027344 4943.832031 5057.492188 4929.164062 5090.398438 C 4913.285156 5126.019531 4898.140625 5161.964844 4882.675781 5197.769531 C 4908.890625 5172.164062 4932.871094 5145.34375 4956.398438 5118.128906 C 4958.601562 5114.582031 4959.554688 5110.394531 4959.097656 5106.246094 C 4958.570312 5100.207031 4957.667969 5094.207031 4956.398438 5088.28125 C 4963.089844 5088.667969 4969.78125 5089.054688 4977.449219 5089.496094 C 4988.882812 5078.339844 4999.207031 5066.101562 5008.277344 5052.949219 C 5018.734375 5034.664062 5041.972656 5022.308594 5036.785156 4995.886719 C 5038.3125 4992.5625 5040.894531 4989.835938 5044.128906 4988.125 C 5050.921875 4984.5 5057.15625 4979.910156 5062.628906 4974.5 C 5078.277344 4951.777344 5093.027344 4928.402344 5107.292969 4904.777344 C 5117.003906 4888.691406 5125.351562 4871.78125 5131.378906 4860.648438 C 5125.085938 4847.191406 5121.105469 4838.679688 5117.125 4830.167969 C 5125.910156 4829.554688 5134.695312 4828.945312 5148.296875 4828 C 5152.96875 4810.496094 5158.980469 4790.039062 5163.820312 4769.308594 C 5169.09375 4746.707031 5157.335938 4730.730469 5134.421875 4727.820312 C 5109.894531 4724.710938 5089.398438 4738.78125 5077.59375 4766.835938 Z M 5077.59375 4766.835938" stroke-linecap="round" />
</g>
		<g transform="matrix(1 0 0 1 0.89 -98.61)"  >
<path style="stroke: none; stroke-width: 1; stroke-dasharray: none; stroke-linecap: butt; stroke-dashoffset: 0; stroke-linejoin: miter; stroke-miterlimit: 4; fill: rgb(0,0,0); fill-rule: nonzero; opacity: 1;" vector-effect="non-scaling-stroke"  transform=" translate(-5094.32, -4780.09)" d="M 5077.5 4766.835938 C 5089.992188 4763.125 5103.371094 4768.695312 5109.539062 4780.171875 C 5111.585938 4783.1875 5112.074219 4786.992188 5110.859375 4790.425781 C 5107.863281 4793.464844 5103.613281 4794.925781 5099.382812 4794.375 C 5087.546875 4789.152344 5073.980469 4784.28125 5077.765625 4766.566406 Z M 5077.5 4766.835938" stroke-linecap="round" />
</g>
		<g transform="matrix(1 0 0 1 -22.75 25.89)"  >
<path style="stroke: none; stroke-width: 1; stroke-dasharray: none; stroke-linecap: butt; stroke-dashoffset: 0; stroke-linejoin: miter; stroke-miterlimit: 4; fill: rgb(0,0,0); fill-rule: nonzero; opacity: 1;" vector-effect="non-scaling-stroke"  transform=" translate(-5070.67, -4904.6)" d="M 5087.328125 4910.476562 C 5081.890625 4912.402344 5075.261719 4917.242188 5071.285156 4915.613281 C 5064.582031 4911.648438 5058.535156 4906.664062 5053.367188 4900.835938 C 5056.035156 4897.460938 5059.546875 4894.84375 5063.542969 4893.253906 C 5071.953125 4896.082031 5080.125 4899.578125 5087.980469 4903.703125 Z M 5087.328125 4910.476562" stroke-linecap="round" />
</g>
</g>
</g>
</svg>