<?xml version="1.0" encoding="UTF-8" standalone="no" ?>
<!DOCTYPE svg PUBLIC "-//W3C//DTD SVG 1.1//EN" "http://www.w3.org/Graphics/SVG/1.1/DTD/svg11.dtd">
<svg xmlns="http://www.w3.org/2000/svg" xmlns:xlink="http://www.w3.org/1999/xlink" version="1.1" width="1080" height="1080" viewBox="0 0 1080 1080" xml:space="preserve">
<desc>Created with Fabric.js 5.2.4</desc>
<defs>
</defs>
<rect x="0" y="0" width="100%" height="100%" fill="transparent"></rect>
<g transform="matrix(Infinity NaN NaN Infinity 0 0)" id="fc8dca6d-9577-45c2-9a23-ba278db57007"  >
</g>
<g transform="matrix(1 0 0 1 540 540)" id="b48352ee-3ea7-4312-8d63-dfb30308ae91"  >
<rect style="stroke: none; stroke-width: 1; stroke-dasharray: none; stroke-linecap: butt; stroke-dashoffset: 0; stroke-linejoin: miter; stroke-miterlimit: 4; fill: rgb(255,255,255); fill-rule: nonzero; opacity: 1; visibility: hidden;" vector-effect="non-scaling-stroke"  x="-540" y="-540" rx="0" ry="0" width="1080" height="1080" />
</g>
<g transform="matrix(1 0 0 1 566.3 540)" id="0426d433-95ca-40a8-b9b7-64d2d464c714"  >
<path style="stroke: rgb(0,0,0); stroke-width: 0; stroke-dasharray: none; stroke-linecap: butt; stroke-dashoffset: 0; stroke-linejoin: miter; stroke-miterlimit: 4; fill: rgb(0,0,0); fill-rule: nonzero; opacity: 1;" vector-effect="non-scaling-stroke"  transform=" translate(-5170.61, -4886.3)" d="M 5048.90625 4474.480469 C 5060.460938 4469 5066.992188 4471.328125 5071.597656 4481.261719 C 5093.625 4528.792969 5115.898438 4576.210938 5139.074219 4625.789062 C 5140.0625 4585.847656 5140.347656 4547.132812 5142.300781 4508.503906 C 5143.71875 4492.351562 5146.492188 4476.347656 5150.59375 4460.65625 C 5152.28125 4456.9375 5155.78125 4454.359375 5159.835938 4453.847656 C 5164.257812 4454.601562 5168.144531 4457.226562 5170.503906 4461.042969 C 5172.277344 4465.613281 5173.042969 4470.515625 5172.746094 4475.410156 C 5175.292969 4531.101562 5181.347656 4586.773438 5173.59375 4642.539062 C 5173.179688 4647.953125 5173.429688 4653.398438 5174.332031 4658.757812 C 5176.617188 4679.578125 5179.09375 4700.378906 5180.972656 4716.644531 C 5187.898438 4688.828125 5195.84375 4656.277344 5204.117188 4623.8125 C 5216.949219 4574.207031 5240.902344 4528.171875 5274.160156 4489.199219 C 5279.429688 4485.691406 5285.414062 4483.40625 5291.679688 4482.507812 C 5292.613281 4488.246094 5292.523438 4494.109375 5291.417969 4499.820312 C 5279.894531 4528.445312 5264.207031 4555.816406 5256.109375 4585.308594 C 5243.253906 4632.140625 5234.964844 4680.246094 5225.308594 4727.929688 C 5217.714844 4765.433594 5209.101562 4802.882812 5204.488281 4840.789062 C 5200.972656 4867.121094 5201.167969 4893.820312 5205.066406 4920.097656 C 5214.917969 4980.085938 5229.730469 5039.25 5239.710938 5099.21875 C 5244.515625 5125.898438 5245.019531 5153.175781 5241.199219 5180.015625 C 5238.496094 5207.535156 5219.039062 5230.515625 5192.339844 5237.71875 C 5194.742188 5258.488281 5197.734375 5278.875 5199.085938 5299.371094 C 5198.308594 5306.109375 5196.390625 5312.664062 5193.414062 5318.757812 C 5189.414062 5313.386719 5185.332031 5308.078125 5181.480469 5302.609375 C 5180.632812 5300.738281 5180.03125 5298.761719 5179.6875 5296.738281 C 5158.601562 5311.917969 5157.222656 5291.902344 5150.925781 5275.765625 C 5148.53125 5281.941406 5145.335938 5287.769531 5141.414062 5293.105469 C 5137.007812 5296.203125 5132.1875 5298.65625 5127.089844 5300.386719 C 5125.167969 5294.925781 5120.457031 5288.601562 5121.828125 5284.160156 C 5126.75 5268.25 5133.730469 5252.976562 5139.957031 5237.394531 C 5139.46875 5236.472656 5138.792969 5235.65625 5137.980469 5235.003906 C 5091.75 5212.664062 5087.011719 5183.40625 5102.851562 5134.375 C 5115.515625 5095.179688 5131.246094 5056.964844 5145.886719 5018.417969 C 5155.277344 4993.988281 5156.988281 4967.269531 5150.785156 4941.839844 C 5148.996094 4934.09375 5153.492188 4925.09375 5152.773438 4916.875 C 5151.199219 4893.765625 5148.433594 4870.757812 5144.488281 4847.9375 C 5134.304688 4795.230469 5123.59375 4742.585938 5111.328125 4690.328125 C 5103.179688 4655.609375 5091.8125 4621.648438 5082.1875 4587.261719 C 5075.914062 4564.84375 5070.429688 4542.203125 5064.085938 4519.800781 C 5061.449219 4510.5 5057.351562 4501.617188 5054.199219 4492.449219 C 5052.183594 4486.59375 5050.679688 4480.566406 5048.90625 4474.480469 Z M 5193.09375 4978.867188 L 5195.242188 4978.316406 C 5194.03125 4971.519531 5192.03125 4964.890625 5189.277344 4958.558594 C 5185.859375 4954.871094 5181.71875 4951.921875 5177.113281 4949.902344 C 5175.460938 4953.96875 5174.195312 4958.1875 5173.339844 4962.5 C 5171.292969 4981.777344 5172.964844 5002.148438 5167.234375 5020.199219 C 5155.511719 5057.140625 5139.691406 5092.769531 5125.960938 5129.09375 C 5117.832031 5150.589844 5111.824219 5173.132812 5120.347656 5195.402344 C 5127.054688 5212.921875 5154.160156 5222.46875 5178.386719 5219.058594 C 5198.53125 5216.222656 5220.058594 5199.996094 5220.757812 5181.660156 C 5222.296875 5152.007812 5221.089844 5122.28125 5217.160156 5092.851562 C 5211.464844 5054.511719 5201.324219 5016.828125 5193.09375 4978.867188 Z M 5239.226562 4574.777344 C 5216.53125 4630.726562 5200.003906 4688.488281 5201.191406 4750.078125 C 5213.871094 4691.644531 5226.550781 4633.210938 5239.226562 4574.777344 Z M 5153.632812 4629.3125 L 5159.617188 4629.574219 C 5160.230469 4614.78125 5160.84375 4599.988281 5161.457031 4585.191406 L 5156.144531 4584.964844 C 5155.304688 4599.746094 5154.46875 4614.53125 5153.632812 4629.3125 Z M 5152.238281 4775.222656 L 5148.796875 4775.933594 L 5159.746094 4834.757812 L 5163.808594 4833.929688 C 5159.949219 4814.359375 5156.09375 4794.792969 5152.238281 4775.222656 Z M 5152.238281 4775.222656" stroke-linecap="round" />
</g>
</svg>