<?xml version="1.0" encoding="UTF-8" standalone="no" ?>
<!DOCTYPE svg PUBLIC "-//W3C//DTD SVG 1.1//EN" "http://www.w3.org/Graphics/SVG/1.1/DTD/svg11.dtd">
<svg xmlns="http://www.w3.org/2000/svg" xmlns:xlink="http://www.w3.org/1999/xlink" version="1.1" width="1080" height="1080" viewBox="0 0 1080 1080" xml:space="preserve">
<desc>Created with Fabric.js 5.2.4</desc>
<defs>
</defs>
<rect x="0" y="0" width="100%" height="100%" fill="transparent"></rect>
<g transform="matrix(Infinity NaN NaN Infinity 0 0)" id="fc8dca6d-9577-45c2-9a23-ba278db57007"  >
</g>
<g transform="matrix(1 0 0 1 540 540)" id="b48352ee-3ea7-4312-8d63-dfb30308ae91"  >
<rect style="stroke: none; stroke-width: 1; stroke-dasharray: none; stroke-linecap: butt; stroke-dashoffset: 0; stroke-linejoin: miter; stroke-miterlimit: 4; fill: rgb(255,255,255); fill-rule: nonzero; opacity: 1; visibility: hidden;" vector-effect="non-scaling-stroke"  x="-540" y="-540" rx="0" ry="0" width="1080" height="1080" />
</g>
<g transform="matrix(1 0 0 1 583.05 540)" id="18809aee-9767-44b2-8ac9-7ccf29a713bf"  >
<path style="stroke: rgb(0,0,0); stroke-width: 0; stroke-dasharray: none; stroke-linecap: butt; stroke-dashoffset: 0; stroke-linejoin: miter; stroke-miterlimit: 4; fill: rgb(0,0,0); fill-rule: nonzero; opacity: 1;" vector-effect="non-scaling-stroke"  transform=" translate(-5082.32, -4860.19)" d="M 5175.628906 4515.859375 C 5209.472656 4500.511719 5243.371094 4487.855469 5272.8125 4518.386719 C 5283.292969 4531.140625 5289.386719 4546.929688 5290.195312 4563.417969 C 5291.117188 4575.667969 5290.613281 4581.882812 5303.867188 4586.953125 C 5339.898438 4600.734375 5346.496094 4614.992188 5337.730469 4654.246094 C 5333.078125 4666.371094 5337.203125 4680.105469 5347.765625 4687.65625 C 5356.710938 4695.457031 5357.054688 4715.515625 5357.324219 4730.171875 C 5357.574219 4743.554688 5356.265625 4754.042969 5368.59375 4764.757812 C 5376.046875 4771.097656 5380.460938 4780.304688 5380.726562 4790.085938 C 5380.992188 4799.867188 5377.089844 4809.304688 5369.988281 4816.039062 C 5350.519531 4838.140625 5328.019531 4857.375 5303.15625 4873.171875 C 5268.015625 4892.644531 5231.703125 4909.925781 5194.429688 4924.917969 C 5181.242188 4929.003906 5167.691406 4931.808594 5153.964844 4933.292969 C 5155.308594 4944.921875 5156.238281 4958.234375 5158.460938 4971.328125 C 5169.210938 5034.710938 5180.183594 5098.054688 5191.375 5161.363281 C 5195.722656 5185.839844 5181.695312 5203.621094 5147.679688 5214.355469 C 5121.082031 5222.75 5094.371094 5230.804688 5067.636719 5238.765625 C 5046.710938 5245 5035.699219 5232.652344 5035.433594 5210.84375 C 5034.816406 5160.128906 5031.535156 5109.4375 5028.699219 5058.773438 C 5027.785156 5042.410156 5024.320312 5026.203125 5023.050781 5009.84375 C 5021.578125 4990.832031 5014.839844 4982.113281 4993.234375 4984.632812 C 4946.652344 4990.0625 4909.105469 4973.824219 4878.734375 4936.25 C 4856.128906 4909.941406 4831.445312 4885.488281 4804.925781 4863.125 C 4781.507812 4842.175781 4776.269531 4818.867188 4796.230469 4793.875 C 4809.273438 4777.550781 4814.835938 4763.867188 4798.566406 4747.203125 C 4795.664062 4744.191406 4793.90625 4740.257812 4793.605469 4736.082031 C 4793.402344 4706.097656 4790.191406 4675.425781 4795.675781 4646.433594 C 4798.003906 4634.152344 4817.816406 4623.351562 4831.730469 4615.507812 C 4853.242188 4603.386719 4870.648438 4592.882812 4880.242188 4565.4375 C 4898.832031 4512.28125 4975.949219 4491.824219 5023.566406 4521.210938 C 5028.757812 4524.414062 5039.042969 4520.925781 5046.339844 4518.582031 C 5050.449219 4515.855469 5054.050781 4512.433594 5056.980469 4508.464844 C 5102.53125 4468.53125 5134.988281 4470.246094 5175.628906 4515.859375 Z M 5113.816406 5191.4375 C 5106.410156 5152.328125 5099.402344 5117.625 5093.355469 5082.753906 C 5087.300781 5047.828125 5084.914062 5012.027344 5075.984375 4977.902344 C 5065.488281 4937.8125 5069.636719 4895.773438 5050.730469 4856.082031 C 5037.167969 4827.601562 5038.667969 4791.859375 5034.160156 4759.257812 C 5033.929688 4754.660156 5035.96875 4750.242188 5039.617188 4747.429688 C 5045.664062 4745.722656 5052.148438 4746.625 5057.503906 4749.910156 C 5062.414062 4755.621094 5062.800781 4764.957031 5066.460938 4772.0625 C 5073.800781 4786.300781 5082.0625 4800.066406 5089.941406 4814.027344 C 5098.453125 4799.695312 5105.523438 4784.558594 5111.050781 4768.835938 C 5115.914062 4761.933594 5121.921875 4755.910156 5128.8125 4751.027344 C 5133.859375 4757.488281 5142.535156 4763.546875 5143.3125 4770.488281 C 5146.480469 4798.8125 5146.019531 4827.550781 5149.414062 4855.835938 C 5150.96875 4868.828125 5155.039062 4887.023438 5164.019531 4892.046875 C 5172.78125 4896.945312 5189.617188 4889.164062 5202.25 4884.964844 C 5220.765625 4879.214844 5238.808594 4872.046875 5256.21875 4863.519531 C 5282.296875 4851.457031 5307.121094 4836.847656 5330.328125 4819.90625 C 5352.378906 4802.246094 5346.703125 4789.328125 5319.234375 4781.941406 C 5311.9375 4778.832031 5305.746094 4773.59375 5301.480469 4766.90625 C 5303.539062 4762.246094 5306.144531 4757.847656 5309.234375 4753.792969 C 5315.164062 4740.554688 5320.582031 4727.085938 5326.203125 4713.710938 C 5313.652344 4715.375 5301.007812 4716.199219 5288.34375 4716.183594 C 5280.089844 4715.941406 5272.191406 4712.757812 5266.074219 4707.214844 C 5263.628906 4704.503906 5268.226562 4692.488281 5272.667969 4687.25 C 5278.910156 4679.875 5291.507812 4676.472656 5295.0625 4668.539062 C 5300.726562 4652.957031 5305.03125 4636.917969 5307.929688 4620.59375 C 5293.90625 4619.71875 5279.78125 4619.597656 5265.894531 4617.726562 C 5255.25 4615.738281 5244.730469 4613.148438 5234.382812 4609.96875 C 5239.085938 4602.394531 5243.015625 4594.363281 5246.101562 4585.996094 C 5250.070312 4571.070312 5257.699219 4553.792969 5253.492188 4540.851562 C 5248.070312 4524.183594 5229.839844 4528.714844 5214.570312 4532.910156 C 5191.066406 4539.304688 5172.015625 4556.519531 5163.28125 4579.253906 C 5158.285156 4587.449219 5149.519531 4592.601562 5139.933594 4592.972656 C 5126.164062 4590.570312 5123.773438 4578.519531 5129.601562 4565.574219 C 5134.519531 4556.960938 5138.101562 4547.652344 5140.234375 4537.964844 C 5141.902344 4528.695312 5139.8125 4519.144531 5134.421875 4511.421875 C 5126.335938 4506.863281 5116.667969 4506.027344 5107.917969 4509.128906 C 5070.34375 4521.121094 5056.816406 4550.464844 5054.871094 4587.347656 C 5053.546875 4612.503906 5055.882812 4613.289062 5080.085938 4608.742188 C 5110.390625 4603.046875 5141.730469 4598.164062 5159.824219 4634.15625 C 5163.578125 4638.195312 5168.921875 4640.367188 5174.429688 4640.085938 C 5235.585938 4638.574219 5248.175781 4651.386719 5239.847656 4709.34375 C 5246.824219 4712.566406 5254.441406 4715.492188 5261.484375 4719.445312 C 5287.480469 4734.046875 5299.808594 4758.039062 5286.53125 4775.398438 C 5268.03125 4798.671875 5247.578125 4820.320312 5225.390625 4840.105469 C 5221.414062 4843.78125 5208.636719 4837.9375 5199.925781 4836.488281 C 5200.738281 4829.308594 5202.964844 4822.363281 5206.480469 4816.050781 C 5219.203125 4801.960938 5234.175781 4789.917969 5247.082031 4775.980469 C 5251.554688 4771.152344 5256.53125 4760.609375 5254.304688 4757.089844 C 5249.449219 4749.941406 5242.042969 4744.921875 5233.605469 4743.054688 C 5222.5 4741.203125 5210.351562 4745.714844 5199.203125 4743.964844 C 5190.824219 4742.214844 5183.40625 4737.386719 5178.414062 4730.433594 C 5176.5625 4727.695312 5184.039062 4717.703125 5188.46875 4711.925781 C 5193.425781 4707.785156 5198.070312 4703.289062 5202.371094 4698.472656 C 5205.671875 4690.667969 5208.171875 4682.550781 5209.832031 4674.242188 C 5200.664062 4673.21875 5189.332031 4668.308594 5182.757812 4671.957031 C 5167.367188 4680.496094 5154.933594 4694.230469 5139.914062 4703.644531 C 5131.730469 4706.761719 5123.046875 4708.371094 5114.285156 4708.390625 C 5112.539062 4699.105469 5111.9375 4689.640625 5112.484375 4680.210938 C 5115.363281 4674.292969 5119.601562 4669.140625 5124.851562 4665.171875 C 5136.699219 4651.8125 5130.253906 4641.78125 5117.707031 4635.328125 C 5102.441406 4627.476562 5075.734375 4642.496094 5074.351562 4659.925781 C 5073.019531 4676.742188 5069.964844 4691.988281 5049.171875 4686.824219 C 5031.855469 4682.527344 5025.011719 4669.199219 5029.539062 4650.132812 C 5031.066406 4641.949219 5029.476562 4633.496094 5025.085938 4626.425781 C 5018.609375 4623.816406 5011.273438 4624.515625 5005.402344 4628.296875 C 4998.964844 4634.722656 4994.605469 4642.941406 4992.894531 4651.878906 C 4991.566406 4658.519531 4998.511719 4667.089844 4996.679688 4673.296875 C 4994.042969 4682.230469 4987.117188 4696.171875 4981.402344 4696.480469 C 4970.824219 4695.675781 4961.0625 4690.496094 4954.46875 4682.183594 C 4949.75 4676.277344 4952.519531 4664.695312 4950.945312 4655.8125 C 4950.574219 4651.378906 4948.371094 4647.296875 4944.863281 4644.550781 C 4940.148438 4643.90625 4935.410156 4645.539062 4932.089844 4648.945312 C 4917.957031 4664.898438 4914.316406 4687.582031 4922.75 4707.152344 C 4936.480469 4739.640625 4936.808594 4740.578125 4901.859375 4745.65625 C 4892.910156 4780.976562 4892.953125 4780.890625 4926.230469 4797.09375 C 4931.710938 4799.046875 4936.613281 4802.34375 4940.492188 4806.683594 C 4947.59375 4817.664062 4953.039062 4829.71875 4959.152344 4841.34375 C 4948.339844 4845.0625 4937.511719 4848.726562 4926.75 4852.574219 C 4924.003906 4854.492188 4921.464844 4856.691406 4919.167969 4859.128906 C 4935.851562 4870.136719 4951.375 4879.890625 4966.332031 4890.449219 C 4973.582031 4896.105469 4980.53125 4902.144531 4987.140625 4908.542969 C 4979.945312 4913.058594 4972.75 4917.578125 4965.554688 4922.097656 C 4956.046875 4928.097656 4946.546875 4934.121094 4935.09375 4941.371094 C 4956.714844 4955.777344 4984.90625 4921.855469 4996.957031 4967.640625 C 5003.796875 4954.308594 5010.96875 4947.0625 5009.898438 4941.363281 C 5000.257812 4889.972656 4997.324219 4836.5 4965.519531 4791.417969 C 4961.890625 4786.273438 4964.171875 4776.960938 4963.710938 4769.582031 C 4970.964844 4770.644531 4982.1875 4769.128906 4984.828125 4773.191406 C 5001.242188 4798.429688 5021.632812 4823.285156 5029.410156 4851.394531 C 5039.78125 4888.882812 5039.847656 4929.222656 5044.351562 4968.335938 C 5052.664062 5040.511719 5060.660156 5112.726562 5069.988281 5184.773438 C 5073.300781 5191.507812 5079.6875 5196.207031 5087.101562 5197.363281 C 5096.265625 5196.832031 5105.285156 5194.832031 5113.816406 5191.4375 Z M 5018.375 4585.667969 C 5020.070312 4551.746094 5010.84375 4534.960938 4987.472656 4530.195312 C 4946.671875 4521.878906 4901.546875 4564.792969 4908.363281 4605.550781 C 4910.65625 4619.265625 4905.996094 4632.984375 4891.773438 4627.5625 C 4866.308594 4617.847656 4853.257812 4635.476562 4836.5625 4645.808594 C 4822.75 4654.355469 4823.671875 4664.972656 4829.597656 4679.800781 C 4837.839844 4700.421875 4840.453125 4723.230469 4847.207031 4744.550781 C 4849.050781 4750.367188 4857.109375 4754.214844 4864.136719 4760.625 C 4875.726562 4721.257812 4885.417969 4688.074219 4895.28125 4654.941406 C 4903.84375 4626.167969 4921.183594 4604.359375 4958.976562 4610.515625 C 4966.945312 4610.476562 4974.761719 4608.328125 4981.632812 4604.292969 C 4993.40625 4599.085938 5004.660156 4592.703125 5018.375 4585.667969 Z M 5112.835938 4859.746094 L 5107.796875 4857.382812 C 5104.554688 4869.945312 5097.644531 4882.832031 5098.726562 4895.011719 C 5101.9375 4940.175781 5107.605469 4985.136719 5115.699219 5029.6875 C 5124.941406 5075.886719 5139.707031 5120.980469 5152.058594 5166.558594 L 5156.414062 5165.582031 C 5141.886719 5063.636719 5127.359375 4961.691406 5112.835938 4859.746094 Z M 4842.605469 4790.648438 C 4854.0625 4809.0625 4862.53125 4822.675781 4871 4836.285156 C 4879.40625 4797.679688 4876.164062 4792.253906 4842.605469 4790.648438 Z M 4827.734375 4811.308594 C 4812.886719 4834.578125 4827.226562 4841.746094 4848.675781 4851.609375 C 4839.90625 4834.734375 4833.820312 4823.023438 4827.734375 4811.308594 Z M 4827.734375 4811.308594" stroke-linecap="round" />
</g>
</svg>