<?xml version="1.0" encoding="UTF-8" standalone="no" ?>
<!DOCTYPE svg PUBLIC "-//W3C//DTD SVG 1.1//EN" "http://www.w3.org/Graphics/SVG/1.1/DTD/svg11.dtd">
<svg xmlns="http://www.w3.org/2000/svg" xmlns:xlink="http://www.w3.org/1999/xlink" version="1.1" width="1080" height="1080" viewBox="0 0 1080 1080" xml:space="preserve">
<desc>Created with Fabric.js 5.2.4</desc>
<defs>
</defs>
<rect x="0" y="0" width="100%" height="100%" fill="transparent"></rect>
<g transform="matrix(Infinity NaN NaN Infinity 0 0)" id="fc8dca6d-9577-45c2-9a23-ba278db57007"  >
</g>
<g transform="matrix(1 0 0 1 540 540)" id="b48352ee-3ea7-4312-8d63-dfb30308ae91"  >
<rect style="stroke: none; stroke-width: 1; stroke-dasharray: none; stroke-linecap: butt; stroke-dashoffset: 0; stroke-linejoin: miter; stroke-miterlimit: 4; fill: rgb(255,255,255); fill-rule: nonzero; opacity: 1; visibility: hidden;" vector-effect="non-scaling-stroke"  x="-540" y="-540" rx="0" ry="0" width="1080" height="1080" />
</g>
<g transform="matrix(1 0 0 1 563.51 482.54)"  >
<g style="" vector-effect="non-scaling-stroke"   >
		<g transform="matrix(1 0 0 1 0 0)"  >
<path style="stroke: none; stroke-width: 1; stroke-dasharray: none; stroke-linecap: butt; stroke-dashoffset: 0; stroke-linejoin: miter; stroke-miterlimit: 4; fill: rgb(0,0,0); fill-rule: nonzero; opacity: 1;" vector-effect="non-scaling-stroke"  transform=" translate(-5028.52, -4804.81)" d="M 4914.527344 4754.882812 C 4970.855469 4719.207031 5034.558594 4696.816406 5100.816406 4689.394531 C 5122.691406 4686.476562 5145.910156 4695.378906 5168.617188 4696.238281 C 5180.242188 4697.070312 5191.808594 4693.988281 5201.480469 4687.480469 C 5231.5 4662.875 5260.21875 4636.726562 5287.527344 4609.144531 C 5298.714844 4596.125 5307.53125 4581.242188 5313.566406 4565.175781 C 5329.164062 4529.734375 5362.226562 4525.269531 5387.105469 4555.328125 C 5395.722656 4565.742188 5409.132812 4572.359375 5417.039062 4583.140625 C 5425.605469 4594.117188 5431.402344 4606.992188 5433.941406 4620.683594 C 5437.042969 4643.882812 5422.964844 4659.617188 5402.679688 4668.992188 C 5393.933594 4673.636719 5384.285156 4676.324219 5374.398438 4676.871094 C 5357.183594 4676.574219 5340.511719 4682.890625 5327.8125 4694.515625 C 5302.816406 4716.855469 5279.960938 4741.652344 5257.015625 4766.179688 C 5253.773438 4772.539062 5251.789062 4779.460938 5251.167969 4786.574219 C 5285.695312 4786.457031 5288.078125 4806.738281 5284.6875 4831.777344 C 5279.941406 4866.808594 5278.125 4902.367188 5271.183594 4936.925781 C 5266.546875 4956.105469 5258.375 4974.253906 5247.085938 4990.4375 C 5215.917969 5038.039062 5173.613281 5071.65625 5114.707031 5073.578125 C 5055.566406 5075.507812 4996.265625 5072.644531 4937.035156 5071.722656 C 4917.3125 5071.414062 4897.492188 5069.019531 4877.894531 5070.300781 C 4798.511719 5075.496094 4731.367188 5050.871094 4680.441406 4988.890625 C 4645.308594 4946.128906 4635.082031 4892.671875 4623.804688 4840.433594 C 4620.71875 4826.128906 4624.933594 4810.390625 4624.496094 4795.347656 C 4623.332031 4755.625 4655.523438 4729.65625 4692.824219 4743.289062 C 4711.917969 4750.265625 4722.84375 4747.816406 4732.90625 4730.027344 C 4740.5625 4715.476562 4754.625 4705.375 4770.863281 4702.769531 C 4787.097656 4700.160156 4803.613281 4705.351562 4815.441406 4716.773438 C 4822.148438 4720.976562 4830.328125 4722.109375 4837.921875 4719.890625 C 4885.199219 4706.585938 4892.472656 4709.351562 4914.527344 4754.882812 Z M 4738.722656 5002.796875 C 4769.667969 5025.277344 4806.511719 5038.21875 4844.71875 5040.023438 C 4916.292969 5043.222656 4988.136719 5042.101562 5059.523438 5047.410156 C 5141.375 5053.496094 5201.585938 5025.558594 5234.507812 4948.710938 C 5250.097656 4912.324219 5250.589844 4873.445312 5248.570312 4834.90625 C 5160.28125 4865.109375 5073.347656 4888.066406 4983.035156 4885.921875 C 4911.832031 4884.230469 4840.683594 4874.789062 4769.8125 4866.269531 C 4730.367188 4861.527344 4691.535156 4851.625 4651.15625 4843.804688 C 4653.34375 4852.425781 4655.691406 4861.671875 4657.03125 4866.953125 C 4686.488281 4875.902344 4713.082031 4883.398438 4739.183594 4892.324219 C 4745.496094 4895.914062 4751.136719 4900.578125 4755.847656 4906.101562 C 4748.480469 4909.75 4740.617188 4917.210938 4733.835938 4916.335938 C 4712.992188 4913.644531 4692.5625 4907.757812 4671.972656 4903.117188 L 4668.796875 4908.449219 C 4673.386719 4911.042969 4678.175781 4913.265625 4683.117188 4915.097656 C 4699.527344 4919.851562 4716.410156 4923.195312 4732.363281 4929.109375 C 4736.214844 4930.535156 4737.175781 4939.765625 4739.464844 4945.410156 C 4734.828125 4947.753906 4729.910156 4949.507812 4724.835938 4950.625 C 4714.191406 4951.636719 4703.421875 4951.375 4692.707031 4951.632812 C 4692.554688 4954.21875 4692.402344 4956.804688 4692.25 4959.390625 C 4697.757812 4960.554688 4703.339844 4961.449219 4708.753906 4962.941406 C 4715.882812 4964.90625 4722.976562 4967.078125 4729.917969 4969.613281 C 4754.679688 4978.667969 4755.914062 4983.171875 4738.722656 5002.796875 Z M 4969.113281 4852.5625 C 5035.296875 4858.90625 5094.847656 4844.035156 5152.625 4826.761719 C 5178.628906 4818.988281 5207.058594 4800.863281 5212.878906 4772 C 5195.742188 4755.714844 5184.503906 4737.003906 5168.855469 4731.941406 C 5141.632812 4723.136719 5112.851562 4713.960938 5082.324219 4725.304688 C 5054.671875 4735.578125 5025.175781 4740.804688 4997.210938 4750.367188 C 4981.199219 4757.164062 4965.699219 4765.113281 4950.832031 4774.152344 C 4975.617188 4798.390625 4995.101562 4819.449219 4969.113281 4852.5625 Z M 4829.21875 4758.355469 C 4833.351562 4761.890625 4836.941406 4766.023438 4839.871094 4770.609375 C 4842.460938 4776.242188 4843.292969 4782.523438 4842.269531 4788.636719 C 4838.707031 4792.789062 4833.222656 4794.761719 4827.828125 4793.832031 C 4822.457031 4790.636719 4818.089844 4786.003906 4815.222656 4780.453125 C 4813.644531 4778.121094 4815.671875 4773.367188 4814.109375 4771.019531 C 4805.875 4758.65625 4799.097656 4743.082031 4787.375 4736.359375 C 4782.519531 4733.578125 4766.503906 4749.878906 4755.835938 4757.867188 C 4753.421875 4760.140625 4751.449219 4762.839844 4750.011719 4765.824219 C 4740.078125 4782.300781 4727.417969 4788.148438 4708.515625 4779.511719 C 4699.878906 4774.769531 4689.90625 4773.042969 4680.175781 4774.605469 C 4670.828125 4777.59375 4663.742188 4787.660156 4655.675781 4794.652344 C 4661.894531 4800.632812 4667.277344 4810.367188 4674.472656 4811.972656 C 4715.132812 4821.039062 4756.113281 4828.8125 4797.199219 4835.753906 C 4836.839844 4842.453125 4876.636719 4848.1875 4916.585938 4852.957031 C 4925.0625 4853.960938 4939.835938 4850.972656 4941.96875 4845.804688 C 4946.042969 4835.933594 4947.636719 4819.730469 4942.058594 4812.394531 C 4932.273438 4799.765625 4919.042969 4790.234375 4903.964844 4784.953125 C 4881.742188 4777.757812 4865.589844 4770.320312 4878.339844 4736.707031 C 4858.785156 4745.324219 4845.347656 4751.246094 4829.21875 4758.355469 Z M 5219.566406 4720.371094 L 5225.679688 4726.988281 C 5237.300781 4719.425781 5249.070312 4712.078125 5260.511719 4704.25 C 5297.128906 4679.199219 5325.652344 4639.625 5378.09375 4643.476562 C 5392.273438 4644.515625 5399.691406 4632.042969 5401.289062 4616.605469 C 5365.421875 4630.796875 5362.90625 4628.515625 5365.925781 4587.679688 C 5364.46875 4582.679688 5361.808594 4578.113281 5358.171875 4574.382812 C 5353.121094 4578.609375 5344.082031 4582.472656 5343.660156 4587.121094 C 5340.597656 4620.675781 5314.199219 4633.65625 5291.941406 4651.792969 C 5266.25 4672.730469 5243.5625 4697.351562 5219.566406 4720.371094 Z M 5219.566406 4720.371094" stroke-linecap="round" />
</g>
		<g transform="matrix(1 0 0 1 -255.34 -4.74)"  >
<path style="stroke: none; stroke-width: 1; stroke-dasharray: none; stroke-linecap: butt; stroke-dashoffset: 0; stroke-linejoin: miter; stroke-miterlimit: 4; fill: rgb(0,0,0); fill-rule: nonzero; opacity: 1;" vector-effect="non-scaling-stroke"  transform=" translate(-4773.18, -4800.07)" d="M 4794.640625 4801.234375 C 4781.539062 4808.296875 4774.441406 4815.34375 4769.015625 4814.234375 C 4761.609375 4811.414062 4755.46875 4806.027344 4751.714844 4799.050781 C 4752.972656 4793.714844 4756.109375 4789.007812 4760.546875 4785.789062 C 4772.273438 4790.101562 4783.667969 4795.261719 4794.640625 4801.234375 Z M 4794.640625 4801.234375" stroke-linecap="round" />
</g>
		<g transform="matrix(1 0 0 1 -179.4 11.16)"  >
<path style="stroke: none; stroke-width: 1; stroke-dasharray: none; stroke-linecap: butt; stroke-dashoffset: 0; stroke-linejoin: miter; stroke-miterlimit: 4; fill: rgb(0,0,0); fill-rule: nonzero; opacity: 1;" vector-effect="non-scaling-stroke"  transform=" translate(-4849.11, -4815.97)" d="M 4868.378906 4818.527344 C 4857.226562 4824.054688 4851.453125 4829.421875 4847.484375 4828.316406 C 4840.96875 4825.3125 4835.007812 4821.230469 4829.847656 4816.25 C 4833.546875 4811.734375 4838.355469 4802.898438 4840.746094 4803.507812 C 4850.5 4807.445312 4859.773438 4812.484375 4868.378906 4818.527344 Z M 4868.378906 4818.527344" stroke-linecap="round" />
</g>
</g>
</g>
</svg>