<?xml version="1.0" encoding="UTF-8" standalone="no" ?>
<!DOCTYPE svg PUBLIC "-//W3C//DTD SVG 1.1//EN" "http://www.w3.org/Graphics/SVG/1.1/DTD/svg11.dtd">
<svg xmlns="http://www.w3.org/2000/svg" xmlns:xlink="http://www.w3.org/1999/xlink" version="1.1" width="1080" height="1080" viewBox="0 0 1080 1080" xml:space="preserve">
<desc>Created with Fabric.js 5.2.4</desc>
<defs>
</defs>
<rect x="0" y="0" width="100%" height="100%" fill="transparent"></rect>
<g transform="matrix(Infinity NaN NaN Infinity 0 0)" id="fc8dca6d-9577-45c2-9a23-ba278db57007"  >
</g>
<g transform="matrix(1 0 0 1 540 540)" id="b48352ee-3ea7-4312-8d63-dfb30308ae91"  >
<rect style="stroke: none; stroke-width: 1; stroke-dasharray: none; stroke-linecap: butt; stroke-dashoffset: 0; stroke-linejoin: miter; stroke-miterlimit: 4; fill: rgb(255,255,255); fill-rule: nonzero; opacity: 1; visibility: hidden;" vector-effect="non-scaling-stroke"  x="-540" y="-540" rx="0" ry="0" width="1080" height="1080" />
</g>
<g transform="matrix(1 0 0 1 563.51 574.67)"  >
<g style="" vector-effect="non-scaling-stroke"   >
		<g transform="matrix(1 0 0 1 0 0)"  >
<path style="stroke: none; stroke-width: 1; stroke-dasharray: none; stroke-linecap: butt; stroke-dashoffset: 0; stroke-linejoin: miter; stroke-miterlimit: 4; fill: rgb(0,0,0); fill-rule: nonzero; opacity: 1;" vector-effect="non-scaling-stroke"  transform=" translate(-5027.78, -4839.72)" d="M 5277.433594 4649.914062 C 5303.128906 4608.5 5328.277344 4568.546875 5352.800781 4528.214844 C 5367.519531 4504.015625 5398.898438 4493.492188 5421.882812 4505.515625 C 5437.644531 4513.765625 5438.929688 4522.753906 5428.214844 4537.324219 C 5392.324219 4586.140625 5356.925781 4635.359375 5323.117188 4685.621094 C 5319.1875 4695.597656 5320.195312 4706.84375 5325.835938 4715.964844 C 5352.3125 4752.359375 5366.183594 4796.398438 5365.34375 4841.398438 C 5365.207031 4850.191406 5363.183594 4858.855469 5359.402344 4866.796875 C 5340.070312 4904.726562 5318.8125 4941.695312 5300.117188 4979.925781 C 5260.761719 5060.402344 5206.734375 5127.617188 5120.324219 5158.019531 C 5051.949219 5182.074219 4983.589844 5188.203125 4909.582031 5161.246094 C 4794.082031 5119.179688 4719.496094 5033.210938 4648.503906 4942.625 C 4629.003906 4917.742188 4614.488281 4873.613281 4622.726562 4845.710938 C 4637.332031 4796.25 4646.980469 4743.1875 4694.207031 4703.996094 C 4783.40625 4629.972656 4884.765625 4613.5 4994.1875 4616.84375 C 5008.179688 4617.273438 5022.246094 4613.945312 5036.316406 4613.421875 C 5118.300781 4610.378906 5197.476562 4626.335938 5277.433594 4649.914062 Z M 5234.734375 4716.8125 C 5224.621094 4711.273438 5214.171875 4706.367188 5203.449219 4702.128906 C 5111.542969 4672.976562 5018.648438 4664.886719 4923.65625 4686.949219 C 4873.125 4698.683594 4823.652344 4712.859375 4780.738281 4742.492188 C 4715.121094 4787.804688 4715.773438 4896.214844 4781.386719 4930.894531 C 4802.675781 4941.917969 4824.898438 4951.035156 4847.792969 4958.148438 C 4937.65625 4986.835938 5029.613281 4982.417969 5121.242188 4970.964844 C 5187.867188 4962.636719 5241.320312 4929.738281 5283.652344 4876.605469 C 5305.800781 4848.808594 5303.4375 4793.660156 5273.808594 4771.867188 C 5246.4375 4809.269531 5219.761719 4847.207031 5191.335938 4883.785156 C 5180.699219 4897.476562 5167.996094 4908.316406 5187.425781 4923.664062 C 5174.984375 4932.160156 5159.585938 4935.148438 5144.871094 4931.917969 C 5130.152344 4928.6875 5117.421875 4919.527344 5109.679688 4906.601562 C 5094.289062 4879.976562 5103.109375 4857.28125 5134.101562 4841.53125 C 5143.890625 4837.613281 5152.691406 4831.585938 5159.882812 4823.878906 C 5184.804688 4790.089844 5208.164062 4755.144531 5234.734375 4716.8125 Z M 4654.070312 4883.355469 C 4664.492188 4902.558594 4670.941406 4920.492188 4682.394531 4934.265625 C 4705.828125 4962.269531 4730.65625 4989.074219 4756.785156 5014.582031 C 4804.507812 5061.445312 4854.171875 5103.183594 4920.175781 5126.773438 C 4977.929688 5148.902344 5041.660156 5149.800781 5100.015625 5129.304688 C 5188.925781 5098.980469 5235.640625 5028.890625 5271.394531 4953.523438 C 5054.480469 5044.140625 4849.417969 5039.515625 4654.070312 4883.355469 Z M 4937.207031 4653.859375 C 4936.433594 4650.769531 4935.660156 4647.679688 4934.886719 4644.585938 C 4892.316406 4654.65625 4849.324219 4663.25 4807.273438 4675.167969 C 4754.332031 4690.171875 4715.757812 4726.464844 4683.46875 4768.929688 C 4658.335938 4801.976562 4668.015625 4855.148438 4700.636719 4870.523438 C 4700.132812 4860.117188 4699.855469 4850.378906 4699.164062 4840.671875 C 4692.839844 4751.949219 4745.761719 4708.410156 4821.371094 4687.015625 C 4860.015625 4676.082031 4898.597656 4664.921875 4937.207031 4653.859375 Z M 4937.207031 4653.859375" stroke-linecap="round" />
</g>
		<g transform="matrix(1 0 0 1 19.14 -46.18)"  >
<path style="stroke: none; stroke-width: 1; stroke-dasharray: none; stroke-linecap: butt; stroke-dashoffset: 0; stroke-linejoin: miter; stroke-miterlimit: 4; fill: rgb(0,0,0); fill-rule: nonzero; opacity: 1;" vector-effect="non-scaling-stroke"  transform=" translate(-5046.92, -4793.54)" d="M 5044.652344 4839.597656 C 5031.761719 4837.40625 5019.0625 4834.210938 5006.667969 4830.039062 C 4995.804688 4825.363281 4988.351562 4815.144531 4987.21875 4803.371094 C 4986.085938 4791.601562 4991.457031 4780.144531 5001.230469 4773.488281 C 5016.980469 4763.683594 5033.960938 4756.015625 5051.730469 4750.679688 C 5071.328125 4744.800781 5091.269531 4745.113281 5101.714844 4768.332031 C 5107.015625 4777.40625 5108.207031 4788.304688 5104.992188 4798.308594 C 5101.777344 4808.3125 5094.464844 4816.476562 5084.871094 4820.769531 C 5071.328125 4828.527344 5056.539062 4834.117188 5044.652344 4839.597656 Z M 5017.628906 4795.527344 C 5042.585938 4810.609375 5064.132812 4805.691406 5078.484375 4779.34375 C 5055.828125 4785.367188 5038.683594 4789.925781 5017.628906 4795.527344 Z M 5017.628906 4795.527344" stroke-linecap="round" />
</g>
		<g transform="matrix(1 0 0 1 -184.55 -46.59)"  >
<path style="stroke: none; stroke-width: 1; stroke-dasharray: none; stroke-linecap: butt; stroke-dashoffset: 0; stroke-linejoin: miter; stroke-miterlimit: 4; fill: rgb(0,0,0); fill-rule: nonzero; opacity: 1;" vector-effect="non-scaling-stroke"  transform=" translate(-4843.23, -4793.14)" d="M 4859.449219 4759.875 C 4868.066406 4767.140625 4880.792969 4772.765625 4883.03125 4781.175781 C 4884.605469 4791.929688 4880.914062 4802.78125 4873.109375 4810.34375 C 4861.3125 4819.773438 4846.914062 4825.375 4831.847656 4826.398438 C 4821.984375 4826.441406 4809.25 4815.222656 4803.46875 4805.621094 C 4800.945312 4801.429688 4810.722656 4786.25 4818.277344 4780.433594 C 4831.316406 4772.285156 4845.101562 4765.402344 4859.449219 4759.875 Z M 4859.449219 4759.875" stroke-linecap="round" />
</g>
		<g transform="matrix(1 0 0 1 -159.4 53.77)"  >
<path style="stroke: none; stroke-width: 1; stroke-dasharray: none; stroke-linecap: butt; stroke-dashoffset: 0; stroke-linejoin: miter; stroke-miterlimit: 4; fill: rgb(0,0,0); fill-rule: nonzero; opacity: 1;" vector-effect="non-scaling-stroke"  transform=" translate(-4868.38, -4893.49)" d="M 4855.917969 4924.128906 C 4847.117188 4913.152344 4838.011719 4906.160156 4835.1875 4897.1875 C 4831.550781 4885.621094 4833.328125 4874.816406 4852.085938 4876.316406 C 4859.789062 4876.929688 4867.84375 4864.84375 4876.574219 4863.328125 C 4885.398438 4861.722656 4894.476562 4864.179688 4901.292969 4870.007812 C 4904.542969 4878.089844 4903.367188 4887.273438 4898.1875 4894.273438 C 4884.96875 4905.402344 4870.828125 4915.390625 4855.917969 4924.128906 Z M 4855.917969 4924.128906" stroke-linecap="round" />
</g>
</g>
</g>
</svg>