<?xml version="1.0" encoding="UTF-8" standalone="no" ?>
<!DOCTYPE svg PUBLIC "-//W3C//DTD SVG 1.1//EN" "http://www.w3.org/Graphics/SVG/1.1/DTD/svg11.dtd">
<svg xmlns="http://www.w3.org/2000/svg" xmlns:xlink="http://www.w3.org/1999/xlink" version="1.1" width="1080" height="1080" viewBox="0 0 1080 1080" xml:space="preserve">
<desc>Created with Fabric.js 5.2.4</desc>
<defs>
</defs>
<rect x="0" y="0" width="100%" height="100%" fill="transparent"></rect>
<g transform="matrix(1 0 0 1 540 540)" id="ecd56ed8-f631-4885-90c4-01cd15db3b2f"  >
<rect style="stroke: none; stroke-width: 1; stroke-dasharray: none; stroke-linecap: butt; stroke-dashoffset: 0; stroke-linejoin: miter; stroke-miterlimit: 4; fill: rgb(255,255,255); fill-rule: nonzero; opacity: 1; visibility: hidden;" vector-effect="non-scaling-stroke"  x="-540" y="-540" rx="0" ry="0" width="1080" height="1080" />
</g>
<g transform="matrix(Infinity NaN NaN Infinity 0 0)" id="d6d26864-ef71-4eb5-9b17-35480bd5b92c"  >
</g>
<g transform="matrix(1 0 0 1 1080 1080)"  >
<rect style="stroke: none; stroke-width: 1; stroke-dasharray: none; stroke-linecap: butt; stroke-dashoffset: 0; stroke-linejoin: miter; stroke-miterlimit: 4; fill: rgb(255,255,255); fill-rule: nonzero; opacity: 1; visibility: hidden;" vector-effect="non-scaling-stroke"  x="-540" y="-540" rx="0" ry="0" width="1080" height="1080" />
</g>
<g transform="matrix(2.87 0 0 2.77 540 392.44)"  >
<path style="stroke: none; stroke-width: 1; stroke-dasharray: none; stroke-linecap: butt; stroke-dashoffset: 0; stroke-linejoin: miter; stroke-miterlimit: 4; fill: rgb(0,0,0); fill-rule: nonzero; opacity: 1;" vector-effect="non-scaling-stroke"  transform=" translate(-49.98, -50)" d="M 83.61859 58.73114 C 81.88128999999999 50.763670000000005 76.30377 44.93066 69.74902 40.42181000000001 C 67.74243 39.04156000000001 64.57861 39.19720000000001 61.91702 38.95881000000001 C 59.48102 38.74049000000001 57.00902 38.92237000000001 54.55215 38.93690000000001 C 54.81744810445099 38.29617942381536 55.21316916332089 37.717674058639744 55.71415 37.23817000000001 C 59.555949999999996 34.87544000000001 63.4766 32.64131000000001 67.33964 30.31217000000001 C 72.84385 26.993690000000008 78.30277000000001 15.19617000000001 76.73964000000001 9.111850000000008 C 76.2265 7.11426 74.27887 4.007 72.97107 3.99878 C 70.04909202490205 4.163842971952006 67.22862051512958 5.128493695078506 64.81757 6.787420000000001 C 60.90620462959 9.378711255656235 57.1958512540347 12.261316957349955 53.71807999999997 15.41071000000004 C 52.17937596145506 16.965198167257178 50.89492343085126 18.752179365859675 49.91186999999999 20.70606000000001 C 48.68372 22.81525 47.72773 25.08295 46.615610000000004 27.358890000000002 C 43.53633000000001 23.684450000000002 45.217420000000004 16.99789 37.59187 17.399540000000002 C 39.17445 21.58661 40.83223 25.53693 42.15614 29.59607 C 43.52174 33.7829 44.56245 38.07568 45.90565 42.89783 C 44.76165 43.13465 43.02528 44.09992 41.95686 43.60956 C 37.64467 41.630500000000005 33.31953 43.26256 29.028859999999998 43.07202 Q 28.416099999999997 43.323150000000005 27.79253 43.53247 C 25.839234155684373 44.54465045482894 24.081370974381933 45.89592149639388 22.600939999999998 47.523250000000004 C 21.82422892997897 48.43230384892984 21.103343270890974 49.387609506308465 20.442249999999994 50.38391000000002 C 19.20598 52.685550000000006 17.90203 54.95410000000001 16.69292 57.27045000000001 C 16.212814801785363 58.12934088384503 15.912629912737586 59.07699912140953 15.810659999999999 60.05567000000001 C 15.247173999676862 66.39025637828014 15.934503084711627 72.77382835599467 17.833550000000002 78.84326999999999 C 22.14343 91.66527000000002 32.62855 98.96479000000002 46.37164 94.85310000000001 C 47.08777 94.63881 48.17608 94.10853000000002 48.2583 93.59266000000001 C 48.738299999999995 90.58027000000001 50.14575 91.62592000000001 51.7724 92.5348 C 55.05927 94.37129 58.46674 95.22785 62.30493 94.1786 C 68.28249104066302 92.6974595448008 73.58805690233787 89.24861648933759 77.3681 84.3869 C 83.28339 76.7373 85.65045 68.04938 83.61859 58.73114 Z M 72.0351 10.122 C 72.57764 15.635729999999999 69.69227 18.73064 64.23621 18.41741 C 67.041 15.43408 69.3739 12.95264 72.0351 10.122 Z M 66.01727 23.01465 Q 66.61621 22.79071 67.21502 22.56671 Q 63.981649999999995 23.93982 60.748219999999996 25.31317 L 60.28122 24.80249 Q 62.206939999999996 21.94577 64.1326 19.08905 Q 63.66385 19.85718 63.1951 20.6253 Q 64.60617 21.82007 66.01727 23.01465 Z M 60.7185 14.15833 Q 61.32376 14.40781 61.92895 14.65733 Q 60.113 18.91513 58.297 23.173 Q 57.79447 22.96435 57.291929999999994 22.75558 C 59.00616 20.11383 56.78314 15.92993 60.71851 14.15833 Z M 61.55883 27.8357 Q 61.81197 28.35801 62.06512 28.880319999999998 Q 57.6239 32.492169999999994 53.18261 36.10407 Q 52.633289999999995 35.56391 52.08392 35.02375 C 53.47492 33.29243 55.54144 31.75843 56.11633 29.78889 C 57.31427 25.68506 60.36206 30.4726 61.55884 27.83569 Z M 54.64068 19.80384 C 55.92309 26.50202 51.11889 30.80784 49.081480000000006 35.92738 C 46.59058 32.0202 48.38007 26.48541 54.64069 19.80383 Z M 54.31732 39.02026 C 52.933509778187315 39.95309241453322 51.48212649322822 40.7815350811247 49.97522000000001 41.49871 C 49.656620000000004 41.63195 48.77466 40.41729 47.86499 39.54992 C 50.41833 39.34039 52.37738 39.1795 54.31732 39.02026 Z M 77.93738 76.54541 C 77.00354 78.03467 75.73187 79.31677 74.84888000000001 80.8302 C 74.5998 81.25696 75.18842000000001 82.17249000000001 75.51001000000001 83.26031 C 70.49957 89.45416 60.62801000000001 93.24031000000001 56.826660000000004 90.40655000000001 C 52.95 93.69031 51.40887 88.34692 48.41638 88.379 C 45.63043 93.54984 40.555049999999994 93.37082000000001 35.62012 93.19425000000001 C 33.92743 93.13376000000001 31.45398 93.15073000000001 32.94898 89.79178000000002 C 33.558659999999996 88.42203000000002 32.6905 86.39456000000001 32.42914 84.08768000000002 C 30.985659999999996 83.08603000000002 29.959229999999998 88.97757000000001 27.825559999999996 85.41721000000003 C 27.197139999999997 84.36856000000003 27.913999999999994 82.51371000000003 28.077879999999997 80.08616000000002 C 27.765199999999997 79.90516000000002 26.600949999999997 79.23136000000002 24.979549999999996 78.29283000000002 C 25.722229999999996 76.21283000000003 26.617919999999998 73.70451000000003 27.704889999999995 70.66026000000002 C 25.120229999999996 69.26078000000003 25.181209999999997 73.35478000000002 22.794119999999996 73.38310000000003 C 23.078535215165846 71.46196541922686 23.48377888721433 69.5606714735299 24.007439999999992 67.69053000000004 C 25.196937473926237 64.4214355686656 25.320734252065957 60.859642212137366 24.361079999999994 57.51585000000003 C 24.177789999999995 56.869300000000024 25.263419999999993 55.93107000000002 25.568659999999994 55.05937000000002 C 25.842086294592153 54.09886135906195 26.049569420829176 53.120793920652176 26.189659999999996 52.13200000000001 Q 25.54686999999999 51.57000000000002 24.904079999999993 51.00816000000002 C 28.587079999999993 49.17265000000002 32.10188999999999 46.53709000000002 35.998439999999995 45.718730000000015 C 40.19705 44.83689000000002 44.20119999999999 47.26786000000001 48.58206 49.349280000000014 C 52.109159999999996 48.062840000000016 54.16397 41.288280000000015 60.80661 44.588780000000014 C 60.19943 43.46695000000001 59.813449999999996 42.753700000000016 59.33096 41.86228000000001 C 60.78787 41.369360000000015 62.21353 40.88706000000001 63.639129999999994 40.40476000000001 Q 63.76904 40.60810000000001 63.89883 40.81150000000001 C 63.11982999999999 41.45150000000001 62.34083 42.09159000000001 61.404259999999994 42.86106000000001 C 63.87434999999999 43.22706000000001 66.62446999999999 42.93351000000001 68.42287999999999 44.103060000000006 C 70.14174999999999 45.22106000000001 70.87038999999999 47.861540000000005 72.28170999999999 50.25186000000001 C 70.40811 50.46023000000001 69.43826999999999 50.56814000000001 68.22317999999999 50.70328000000001 C 71.92788999999999 52.26737000000001 71.92788999999999 52.26737000000001 73.83956999999998 56.84677000000001 C 74.00374999999998 55.76803 74.16787999999998 54.68936000000001 74.35183999999998 53.48031 C 77.08291999999999 54.853170000000006 77.83798999999998 56.70931 76.70474999999998 59.647310000000004 C 75.90231999999997 61.72731 73.70797999999998 63.89054 76.24045999999997 66.38858 C 76.56455999999997 66.70822000000001 75.90567999999998 68.02426 75.70499999999997 68.86679000000001 C 76.34970999999997 69.17227000000001 76.93637999999997 69.45023 77.76899999999998 69.84479 C 77.04273999999998 70.9942 76.39954999999998 72.01239000000001 75.76222999999997 73.02106 C 77.50172999999998 73.90259 77.50172999999998 73.90259 81.13887999999997 69.30646 Q 81.50957999999997 69.49991 81.88026999999997 69.69346 C 80.574 71.98242 79.3363 74.31451 77.93738 76.54541 Z" stroke-linecap="round" />
</g>
</svg>