<?xml version="1.0" encoding="UTF-8" standalone="no" ?>
<!DOCTYPE svg PUBLIC "-//W3C//DTD SVG 1.1//EN" "http://www.w3.org/Graphics/SVG/1.1/DTD/svg11.dtd">
<svg xmlns="http://www.w3.org/2000/svg" xmlns:xlink="http://www.w3.org/1999/xlink" version="1.1" width="1080" height="1080" viewBox="0 0 1080 1080" xml:space="preserve">
<desc>Created with Fabric.js 5.2.4</desc>
<defs>
</defs>
<rect x="0" y="0" width="100%" height="100%" fill="transparent"></rect>
<g transform="matrix(Infinity NaN NaN Infinity 0 0)" id="fc8dca6d-9577-45c2-9a23-ba278db57007"  >
</g>
<g transform="matrix(1 0 0 1 540 540)" id="b48352ee-3ea7-4312-8d63-dfb30308ae91"  >
<rect style="stroke: none; stroke-width: 1; stroke-dasharray: none; stroke-linecap: butt; stroke-dashoffset: 0; stroke-linejoin: miter; stroke-miterlimit: 4; fill: rgb(255,255,255); fill-rule: nonzero; opacity: 1; visibility: hidden;" vector-effect="non-scaling-stroke"  x="-540" y="-540" rx="0" ry="0" width="1080" height="1080" />
</g>
<g transform="matrix(1 0 0 1 571.88 588.63)" id="54749a24-7fec-4cb7-a8b4-defdd1b53592"  >
<path style="stroke: rgb(0,0,0); stroke-width: 0; stroke-dasharray: none; stroke-linecap: butt; stroke-dashoffset: 0; stroke-linejoin: miter; stroke-miterlimit: 4; fill: rgb(0,0,0); fill-rule: nonzero; opacity: 1;" vector-effect="non-scaling-stroke"  transform=" translate(-5000, -4999.99)" d="M 4848.734375 4982.957031 C 4904.5625 4958.675781 4961.574219 4935.359375 5017.289062 4909.269531 C 5086.34375 4876.929688 5153.574219 4840.632812 5223.054688 4809.292969 C 5263.347656 4792.34375 5304.699219 4778.023438 5346.84375 4766.414062 C 5356.96875 4764.722656 5367.265625 4768.257812 5374.222656 4775.808594 C 5391.402344 4807.902344 5406.660156 4840.988281 5419.917969 4874.894531 C 5422.402344 4881.234375 5413.679688 4899.449219 5408.300781 4900.277344 C 5306.523438 4915.921875 5219.355469 4970.007812 5125.769531 5006.804688 C 5081.175781 5024.339844 5039.082031 5048.199219 4995.628906 5068.722656 C 4988.503906 5072.605469 4980.523438 5074.65625 4972.410156 5074.691406 C 4953.324219 5073.140625 4947.007812 5081.269531 4948.304688 5091.324219 L 5105.714844 5144.183594 C 5105.671875 5148.585938 5105.628906 5152.988281 5105.585938 5157.390625 C 5070.640625 5168.617188 5036.417969 5184.96875 5000.601562 5190.015625 C 4923.453125 5200.882812 4845.367188 5204.921875 4767.890625 5213.765625 C 4723.421875 5218.84375 4679.597656 5230.433594 4635.082031 5233.859375 C 4616.578125 5235.285156 4597.023438 5223.066406 4579.648438 5217.585938 C 4640.683594 5119.859375 4718.398438 5039.265625 4760.960938 4937.558594 C 4768.71875 4931.324219 4776.089844 4924.621094 4783.023438 4917.480469 C 4794.144531 4904.699219 4803.296875 4890.089844 4815.1875 4878.15625 C 4821.113281 4873.453125 4828.992188 4872.003906 4836.203125 4874.285156 C 4844.363281 4878.296875 4850.359375 4885.679688 4852.609375 4894.488281 C 4853 4923.824219 4850.3125 4953.195312 4848.734375 4982.957031 Z M 5053.152344 5162.894531 L 5052.835938 5152.367188 C 4996.582031 5142.671875 4942.15625 5124.378906 4891.464844 5098.128906 C 4962.859375 5047.574219 5023.449219 4991.496094 5098.136719 4956.808594 C 5100.445312 4959.726562 5102.753906 4962.644531 5105.0625 4965.566406 C 5090.234375 4978.175781 5075.40625 4990.789062 5060.578125 5003.398438 L 5065.167969 5010.246094 C 5076.164062 5003.84375 5086.703125 4996.6875 5096.707031 4988.828125 C 5118.867188 4969.050781 5125.125 4926.75 5169.707031 4938.835938 C 5173.082031 4939.753906 5178.460938 4932.734375 5183.097656 4929.699219 C 5189.652344 4924.632812 5196.730469 4920.289062 5204.214844 4916.742188 C 5234.148438 4905.46875 5265.523438 4897.410156 5294.28125 4883.769531 C 5329.253906 4867.179688 5362.113281 4847.148438 5396.007812 4885.296875 C 5380.042969 4849.679688 5364.078125 4814.066406 5347.175781 4776.367188 C 5172 4860.386719 5001.292969 4942.261719 4828.746094 5025.015625 C 4820.398438 5002.410156 4810.472656 4975.546875 4800.304688 4948.015625 C 4725.5 5023.476562 4676.332031 5113.445312 4626.125 5202.742188 C 4628.207031 5206.140625 4630.289062 5209.539062 4632.371094 5212.9375 C 4772.628906 5196.253906 4912.890625 5179.574219 5053.152344 5162.894531 Z M 5053.152344 5162.894531" stroke-linecap="round" />
</g>
</svg>